<svg xmlns="http://www.w3.org/2000/svg" viewBox="0 0 22.13 22.23">
    <g id="a3a17b48-0242-4d7e-be9f-e34bf5fa108c" data-name="Capa 2">
        <g id="a9a26d5b-b186-4011-aaef-69af594dde84" data-name="Capa 1">
            <g id="aa3c5ede-eb0f-4690-8310-14002b3a5157" data-name="WA Logo">
                <path d="M18.9,3.23A11,11,0,0,0,1.56,16.52L0,22.23,5.84,20.7A11,11,0,0,0,11.1,22h0A11,11,0,0,0,18.9,3.23Zm-7.79,17h0A9,9,0,0,1,6.45,18.9l-.34-.19-3.46.9.92-3.38-.22-.34a9.16,9.16,0,0,1,7.76-14,9.16,9.16,0,0,1,0,18.32Zm5-6.86c-.27-.14-1.63-.8-1.88-.89s-.43-.14-.62.13a13.57,13.57,0,0,1-.87,1.08c-.16.19-.32.21-.6.07A7.74,7.74,0,0,1,10,12.35a8.33,8.33,0,0,1-1.53-1.91.39.39,0,0,1,.12-.56c.12-.13.27-.32.41-.49a1.62,1.62,0,0,0,.28-.45.52.52,0,0,0,0-.49c-.06-.13-.61-1.49-.84-2S7.91,6,7.74,5.94H7.21a1,1,0,0,0-.73.34,3.09,3.09,0,0,0-1,2.3,5.38,5.38,0,0,0,1.13,2.85,12.22,12.22,0,0,0,4.7,4.15,12.61,12.61,0,0,0,1.57.58,3.77,3.77,0,0,0,1.73.11A2.82,2.82,0,0,0,16.5,15a2.28,2.28,0,0,0,.16-1.31C16.59,13.53,16.41,13.46,16.13,13.32Z" />
            </g>
        </g>
    </g>
</svg>