<svg xmlns="http://www.w3.org/2000/svg" viewBox="0 0 112.53 137.71"><g id="Capa_2" data-name="Capa 2"><g id="Capa_1-2" data-name="Capa 1"><path d="M0,121.56V2c0-.51,0-1,0-1.53S.07,0,.42,0a8.49,8.49,0,0,0,1,0H111.1a8.49,8.49,0,0,0,1,0c.35,0,.45.07.42.44s0,1,0,1.53V121.56Zm35.85-6.72-.19-.25-.18.19a2.12,2.12,0,0,0,.24.2s.08-.09-.24-.39l-.31-.44c-.16.15-.33.29,0,4.36a3,3,0,0,0,.79,0,.6.6,0,0,0,.27-.45c0-.46-.16-.26-.44-.16-1.06.36-2.07,0-2.3-.87s-.25-1.89,1-2.07c.06,0,.1-.23.14-.35-.13,0-.26,0-.4,0a1.73,1.73,0,0,0-1.61,1.92c.1,1.32,1,2,2-1.92A2.73,2.73,0,0,1,35.87,114.84Zm22.58,0-.19-.25-.18.19a2.12,2.12,0,0,0,.24.2s.08-.09-.24-.39l-.3-.44c-.17.15-.34.29.32,4.36l.75-.26-.94-.17h-.2a2.19,2.19,0,0,1-1.65-1.24c-.18-.65.13-1.26.89-1.81a1.72,1.72,0,0,0,.32-.43c-.13,0-.26,0-.4,0a1.74,1.74,0,0,0-1.61,1.93c.1,1.3,1,2,2-1.93A2.73,2.73,0,0,1,58.45,114.84ZM23.7,118.51a3,3,0,0,1,.6,0,1,1,0,0,0,1.09-.72,1.07,1.07,0,0,0-.42-1.3,6.36,6.36,0,0,1-1-.63c-.28-.27-.89-.55-.2-1.06-.07-.08-.13-.19-.21-.21-.5-.16-.76.3-.93.63-.09.17.13.65.33.85a14.51,14.51,0,0,0,1.24,1c.13.11.33.38.3.44a1.45,1.45,0,0,1-.57.58,1.62,1.62,0,0,1-.79,0c-.19,0-.4-.83-.56,0,0,.12.29.36.48.44s.39,0,1.48-4.48l-.77.37a5.2,5.2,0,0,0,.8.62c.07,0,.27-.17.41-.27C24.88,114.51,24.75,114.28,23.7,118.51Zm19.5-2.82c-.15-.77-.65-.91-1.1-1.22s-.9-.45-1.38-.07c-.29.23-.16.42-.11.77a17.49,17.49,0,0,1,0,2.89c0,.15,0,.3,0,.45a2.61,2.61,0,0,0,.79,0,.61.61,0,0,0,.19-.53,6.69,6.69,0,0,0-.37-.69c0-.09,0-.26.09-.38a.36.36,0,0,1,.26.07c.32.42.88.64.9,1.34a7.45,7.45,0,0,0,1,.13,2.71,2.71,0,0,0-.32-.61,1,1,0,0,1-.18-1.48A2.92,2.92,0,0,0,43.2,115.69ZM19.09,80.84a8.91,8.91,0,0,0,1,.41c.66.42.36,1.1,0,1.63a4,4,0,0,0-.6,1.07,4,4,0,0,0,1.05-.54.87.87,0,0,1,1.44.18,7.28,7.28,0,0,0,.69.67,12,12,0,0,1-.31-1.44,1.38,1.38,0,0,1,.45-1.46c.11-.08.93-.44,1-.54-.11-.07-1.29-.06-1.45-.34a6.35,6.35,0,0,1-.28-1.32c-.28.33-.85,1.16-1,1.4S19.33,80.79,19.09,80.84ZM56.38,3.5h-51c-.54,0-1.07,0-1.61,0s-.57.21-.53.65c0,.29,0,.58,0,.87V58.59a8.42,8.42,0,0,1,0,.87c-.09.64.24.72.7.68.27,0,.54,0,.81,0H50.1c1.6,0,1.61,0,2.33-1.6s2.25-4.89,2.38-4.9a42,42,0,0,1,1.46,5.8c.09.55.16.73.68.73,6.25,0,12.27,0,18.52,0,.64,0,.66-.41.89-.8.58-1,1.55-3.39,1.69-3.57.12.2,1.31,4.28,1.5,4.33a4.75,4.75,0,0,0,1,0h27.21c.34,0,.67,0,1,0s.56-.23.53-.66,0-.72,0-1.09V5.26c0-.29,0-.58,0-.87.06-.58,0-1-.71-.9a11,11,0,0,1-1.41,0Zm33.9,78c-2-.14-3.82.75-5.74.44-.2,0-.44.18-.65.28.11.24.16.58.34.7a13.79,13.79,0,0,1,1.15,1.14C86.87,85.32,88.5,86.4,90,87.6a1,1,0,0,1,.27.88,12.87,12.87,0,0,1-1.21,3.14,60.81,60.81,0,0,0-3.33,6.78,2.37,2.37,0,0,0-.11.46c.18,0,.41,0,.54-.07,2.11-1.68,4.2-3.39,6.32-5.06.71-.56,1.5-1,2.22-1.55a.86.86,0,0,1,1.24,0c1.87,1.59,3.74,3.18,5.63,4.75a1.06,1.06,0,0,0,.68.18s.13-.36.14-.56c0-1.48-.66-2.88-.41-4.38-.84-.78,0-2-.74-3-.3-.39-.08-1.26,0-1.91a1,1,0,0,1,.39-.56,39,39,0,0,1,4-3.2c1.6-1,2.7-2.72,4.52-3.35a2.69,2.69,0,0,0,.32-.19c-.09-.08-.18-.23-.28-.23a4.74,4.74,0,0,0-2,0c-1.35.62-2.72.28-4.08.4-1,.08-1.94-.23-2.87.4-.42.28-1.12-.21-1.24-.73a11.26,11.26,0,0,1-.39-2.21c0-2.24-.63-4.39-.83-6.6a1.26,1.26,0,0,0-.13-.37,2.17,2.17,0,0,0-.42.31,3,3,0,0,0-.25.54c-1.21,2.72-2.46,5.42-3.61,8.17-.37.89-.67,1.62-1.73,1.36C91.94,81.81,91,81.35,90.28,81.49ZM66.21,68.12c.46.26,3.78,2.89,5.06,3.82.68.5.3.91.11,1.34-.95,2.12-3,6.64-3.11,6.79A53.9,53.9,0,0,0,73.86,76c.83-.72,1.42-.77,2.22-.1,1,.81,2,1.57,2.94,2.32.49.37,1,.68,1.54,1,0-.71-.9-6.49-.7-7.43,0-.25.09-.59.25-.72.61-.48,6.13-4.9,6.13-5.1l-5.86.72a1.78,1.78,0,0,1-1.16-.1c-.23-.18-1.45-7.14-1.59-7.28-.07.11-1.55,4.3-2.49,6.34a2.35,2.35,0,0,1-2,1.59C72.23,67.3,66.73,68.07,66.21,68.12ZM42.76,102.61a21.19,21.19,0,0,0-.32-3.33,8.28,8.28,0,0,0-1.54-3.45c-1.21-1.46-1.25-1.41-3-2a5.23,5.23,0,0,0-3.92.55,6.06,6.06,0,0,0-3.17,5c-.23,2.28-.55,4.7.3,7-.23,1.34.81,2.11,1.24,3.14.34.81,1.21.83,2.91,1.7,1.42.73,2.59.22,3.71-.17a5.35,5.35,0,0,0,2.86-3A11.41,11.41,0,0,0,42.76,102.61ZM54,111.1a3.62,3.62,0,0,0,2.66-.5,9.1,9.1,0,0,0,2.15-2.51,11.83,11.83,0,0,0,.84-3.09c.15-.66-.23-1.42.4-2a.94.94,0,0,0,0-.82c-.6-.52-.31-1.2-.36-1.81-.27-3-1.57-5.55-4.53-6.55-2.2-.75-4.82.6-6.08,2.77a13.78,13.78,0,0,0-1.45,5.87A9.22,9.22,0,0,0,48,106a8.11,8.11,0,0,0,2.52,4.3A4.92,4.92,0,0,0,54,111.1Zm-35.51,0c.67,0,1.34,0,2,0,.16,0,.36-.28.44-.48a12.94,12.94,0,0,1,.43-1.33c1.08-2,2.22-3.93,3.31-5.91A11.63,11.63,0,0,0,26,100.69a5.12,5.12,0,0,0-1.65-5.35A6.05,6.05,0,0,0,22,94.05a7.59,7.59,0,0,0-2.86-.34,4.6,4.6,0,0,0-2.15.62,8,8,0,0,0-2,2.14,9.5,9.5,0,0,0-.89,2.41c-.23.73.31,1.31.4,2a3.65,3.65,0,0,0,1.68,2.67c.92.4,1.71,1.2,2.82,1.06.09,0,.37.49.31.6q-1.44,2.73-3,5.4c-.17.3-.33.48.12.5C17.18,111.13,17.85,111.1,18.52,111.1Zm32.4-41c.89-.83,1.48-.75,2.39,0s3.37,2.55,3.51,2.6c0-.14-.81-5.28-.74-5.7a1.54,1.54,0,0,1,.41-.89c1.33-1.06,4.25-3.4,4.36-3.55-.12,0-4.93.42-5.38.2-.22-.11-1-5.36-1.16-5.52-.08.14-1.91,3.72-2.65,5.42a1.2,1.2,0,0,1-1,.66c-1.69.11-4.88.47-5,.51.08.16,2.81,2.55,3.61,3.23.37.31.38.57.12,1.07a37.45,37.45,0,0,0-2.11,5S49.75,71.14,50.92,70.06Zm19.66,31.47V94.59c0-.29,0-.58-.4-.26a13.55,13.55,0,0,0-1.39,1.08,32.1,32.1,0,0,1-3.93,3.37,2.76,2.76,0,0,0-.29.3,1.33,1.33,0,0,0,.42.25c.65.09,1.58-.11,1.86.27s.1,1.37.1,2.09v6.07c0,.65,0,1.31,0,2-.13,1.38-.15,1.38,1.08,1.38.61,0,1.21,0,1.81,0s1-.12,1.53-.19c-.52-.4-.19-1.11-.41-1.52a5.6,5.6,0,0,1-.36-2.88C70.56,104.85,70.58,103.19,70.58,101.53Zm-33.53-33s-2.08.16-2.91.28c-.27-.89-.8-3.37-.87-3.48a32.37,32.37,0,0,0-1.47,2.9,1.17,1.17,0,0,1-1.14.76,31.31,31.31,0,0,0-3.39.23c.07.09.91.65,1.09.82,1.74,1.64,1.73,1.64.69,4a5.12,5.12,0,0,0-.37,1.08,8.39,8.39,0,0,0,2.2-1.72c.92-.87,1.28-.74,2.1.22a17.69,17.69,0,0,0,1.51,1.25c.22-.18-.36-3.1-.14-3.6A32.74,32.74,0,0,1,37.05,68.57ZM6.86,102.41a2.32,2.32,0,0,0,1.25-.34,3.79,3.79,0,0,0,1.66-2.95c0-1.67-.23-3.23-1.41-4a3.22,3.22,0,0,0-4.77,1.3,7.81,7.81,0,0,0-.35,2.45,3.93,3.93,0,0,0,1.21,2.94C5,102.53,5.74,102.36,6.86,102.41ZM9.69,106c0-.36,0-.73,0-1.09a1.08,1.08,0,0,0-.81-1.25c-.35-.12-.92-.48-1-.38-.49.65-1.46.44-1.84,1.26-.28.63-.61,1.27-1.4,1.3-.06-.55-.13-1.11-.2-1.66,0-.07,0-.19,0-.21-.21-.11-.43-.3-.64-.29s-.53.22-.54.36a6.25,6.25,0,0,0,0,2.16,2.38,2.38,0,0,0,1.12,1.33,1.12,1.12,0,0,0,1.44-.35,12,12,0,0,1,1.57-1.69c.4-.37,1,0,1.06.59a5.53,5.53,0,0,0,0,1.08.75.75,0,0,0,.52.4c.31.07.68.09.67-.47C9.68,106.77,9.69,106.4,9.69,106Zm-3.1,3.32c-.8,0-1.6,0-2.4,0s-.94,0-1,1,0,.9.94.81a27.54,27.54,0,0,1,4.54,0c1,.08,1,.22,1-.72s0-1.08-.9-1.1C8.06,109.35,7.32,109.36,6.59,109.36Zm-.12,7.29c.19.54-.38,1.32.31,1.86,1-.42.28-1.34.49-2,.07-.19.11-.39.16-.58.14.12.29.23.42.36a5.63,5.63,0,0,0,.72.74.79.79,0,0,0,.67,0c.38-.2.56-1,1.09-.58.21.16.13.78.17,1.2,0,.21,0,.44,0,.64a.36.36,0,0,0,.3.21c.17,0,.47-.14.47-.22,0-1.09.05-2.17,0-3.25,0-.15-.34-.42-.5-.4a1.78,1.78,0,0,0-.84.38c-.38.26-.71.83-1.06.83s-.7-.55-1.05-.86a2.67,2.67,0,0,0-.46-.37.66.66,0,0,0-.9.66C6.46,115.69,6.47,116.12,6.47,116.65Zm58.06-.43v.66c0,1.73,0,1.73,1.63,1.63.14,0,.3,0,.4,0,.54-.34,1.3-.59,1.54-1.11a3.21,3.21,0,0,0,0-2.12c-.11-.35-.85-.46-1.3-.68a5.59,5.59,0,0,0-.85-.42c-1-.31-1.4,0-1.42,1.18Zm-48.79.2c0,.58,0,1.17,0,1.74,0,.13.25.32.38.33s.33-.18.4-.33a7,7,0,0,0,.23-.93,6,6,0,0,0,.3.74,1.51,1.51,0,0,0,.42.45.51.51,0,0,0,.37.08,3.7,3.7,0,0,0,.57-.07,1.21,1.21,0,0,0-.17-.45c-.6-.59-1.16-1.13-.14-1.9.11-.08,0-.83-.26-1.11a3.07,3.07,0,0,0-1.09-.78c-.55-.28-1,.06-1,.71S15.74,115.91,15.74,116.42ZM73,118.11a.74.74,0,0,0,0-.21c-.51-1-1-2-1.54-3-.18-.33-.57-.56-.8-.15-.61,1.09-1.14,2.23-1.68,3.36,0,.07.07.28.16.34a.37.37,0,0,0,.36,0c.22-.15.53-.34.57-.56.12-.59.35-.77.91-.76s.81.15.91.75c0,.22.35.41.57.57a.39.39,0,0,0,.37,0C72.92,118.4,73,118.23,73,118.11Zm-53.63-1.84c0,2.37,0,2.37,2.26,2.24.13,0,.32,0,.37,0a2,2,0,0,0,.19-.56c-.13,0-.27-.09-.38-.06-1.64.43-1.8.34-1.63-1.08.1-.81.36-.14.56,0a.68.68,0,0,0,.93-.53c.08-.57-.45-.19-.69-.29s-.28,0-.39,0a2.2,2.2,0,0,1-.41-.33c.14-.18.25-.43.43-.52.37-.19,1.11.36,1.14-.38,0-1-.79-.35-1.22-.5a2.9,2.9,0,0,0-.59,0c-.43-.05-.6.14-.58.6S19.37,115.77,19.37,116.27Zm-15,2.24a5.33,5.33,0,0,0,.8,0,1.63,1.63,0,0,0,.48-.23,3.24,3.24,0,0,0-.52-.19c-.2,0-.43.06-.6,0s-.44-.31-.45-.48a6.46,6.46,0,0,1,.15-1.22c.1.08.18.21.29.24.31.11,1.19-.35,1.09-.42a2.3,2.3,0,0,0-.8-.28c-.13,0-.29,0-.39,0s-.33-.24-.34-.38.15-.43.27-.45c.32-.07.67,0,1,0a.55.55,0,0,0,.31-.41c0-.15-.18-.42-.29-.43-.53,0-1.07,0-1.6,0s-.52.26-.51.67c0,1,0,2,0,3,0,.43.07.7.53.65C4,118.49,4.16,118.51,4.36,118.51Zm25.5-.19a1.4,1.4,0,0,0,0-.49c-.41-.9-.82-1.79-1.26-2.67-.3-.59-.84-.56-1.11.09A8.76,8.76,0,0,1,26,118.08a.91.91,0,0,0-.13.3c.12,0,.24.13.35.12.29,0,.55.1.81-.34.82-1.36,1.18-1.33,2-.07.1.15.2.37.33.4S29.71,118.38,29.86,118.32Zm8.56.19c.4,0,.8,0,1.2,0,.11,0,.21-.13.32-.21a1.46,1.46,0,0,0-.32-.21,8.09,8.09,0,0,1-1.3-.26,1,1,0,0,1-.37-.67c0-.1.33-.28.53-.37s.31,0,.39,0a7.15,7.15,0,0,0,.6-.72l-.75-.14c-.13,0-.28,0-.39,0a2.12,2.12,0,0,1-.41-.33c.14-.18.25-.42.43-.52.37-.23,1.29.47,1.13-.57-.1-.62-.9-.22-1.38-.3a.63.63,0,0,0-.52.16c-.15.2-.52.22-.26.78a2.8,2.8,0,0,1-.07,2.59c-.29.51-.2.79.37.81ZM46,114.15c-.46.26-1.2-.38-1.72.35-.08.11-.19.2-.28.31.1.07.2.19.31.21.39,0,1-.1,1.12.11a3.21,3.21,0,0,1,.18,1.42c0,.57,0,1.14,0,1.71,0,.1.3.21.47.23s.3-.12.3-.2c0-.71,0-1.43,0-2.15s-.08-1.34.89-1.14c.08,0,.3-.25.3-.39s-.15-.42-.27-.43A9.26,9.26,0,0,0,46,114.15Zm17.7,4.21s0-.11,0-.15a12.53,12.53,0,0,1-1.29-3.11c-.1-.37-.4-.61-.85-.11-.8.92-1,2.17-1.67,3.16,0,.07,0,.27,0,.29a.46.46,0,0,0,.37.06,2.56,2.56,0,0,0,.59-.55c.8-1.1,1.2-1.07,1.69.23.19.51.53.29.82.32C63.43,118.51,63.55,118.41,63.67,118.36Zm-51.15-2.12a16.8,16.8,0,0,0,0,1.74c0,.19.27.35.41.53a2.65,2.65,0,0,0,.36-.6c.06-.2-.05-.46,0-.64s.32-.5.45-.48c1,.16,1-.91,1.07-1.37s-.47-.92-1.1-.84c-.11,0-.24-.07-.35-.12-.87-.34-.87-.35-.89.47C12.51,115.37,12.52,115.81,12.52,116.24Zm37.9-.13c0,.72,0,1.45,0,2.17,0,.09.33.24.48.2s.24-.26.29-.43a.47.47,0,0,0-.14-.35c-.41-.4-.23-.68,0-1.07s.5.1.74.11.38-.22.58-.34c-.16-.17-.28-.39-.47-.49s-.4,0-.59,0a2.41,2.41,0,0,1-.56-.38c.16-.16.3-.4.48-.46s.66,0,1-.08c.07,0,.14-.23.15-.35s-.08-.36-.12-.36a4.76,4.76,0,0,0-1.73,0c-.17.06-.12.9-.16,1.39C50.41,115.82,50.42,116,50.42,116.11Zm-1.15.26c-.3-.75.37-1.6-.38-2.22-1,.5-.39,1.48-.44,2.2s-.45,1.54.27,2.16C49.79,118,48.88,117,49.27,116.37Zm4.38-.27c0,.72,0,1.44,0,2.15,0,.1.29.21.46.24s.3-.12.3-.19c0-1.14,0-2.29,0-3.44,0-.21-.33-.41-.51-.62a1.94,1.94,0,0,0-.26.57C53.62,115.23,53.65,115.67,53.65,116.1Z"/><path d="M112.52,122c0,5,0,10,0,15,0,.57-.09.69-.62.68-1.75,0-3.49,0-5.24,0H1.83a8.15,8.15,0,0,0-1.21,0c-.53.08-.62-.1-.62-.67,0-5,0-10,0-15Zm-38.39,4.26v.09a11.06,11.06,0,0,0-1.41,0c-.33,0-.86-.31-.92.42s.53.35.81.41.81,0,1.2,0c.16,0,.42.47.39.51-.93,1.35-.83,3.12-1.62,4.51-.11.19-.74.46,0,.61.35.07.75.72,1,0,.6-1.47,1.18-3,1.78-4.43.25-.61.52-1.21.79-1.82-.69-.11-1.39-.22-4.42.83v-.2a1.69,1.69,0,0,0-.31.13s0,.18.07.27A21.18,21.18,0,0,1,74.13,126.26Zm-16.45,3.36c0,1,0,2,0,3s.5.64.92.67.77,0,.72-.66,0-1.59,0-2.38a1.14,1.14,0,0,1,.13-.38c.09.06.22.1.28.18.4.54.78,1.1,1.2,1.63a14.46,14.46,0,0,0,1.37,1.55c.39.36,1-.06,1-.64,0-1.88,0-3.76,0-5.63,0-.45-.1-.63-.54-.65-1,0-1.07-.07-1.08,1.14,0,.51,0,1,0,1.52a1,1,0,0,1-.16.36,1.23,1.23,0,0,1-.28-.23A13.06,13.06,0,0,1,60,127.31a1.47,1.47,0,0,0-1.63-1c-.67.06-.74.34-.71.92C57.7,128,57.68,128.82,57.68,129.62Zm22.12-3.27c-.4,0-.81,0-1.21,0-.84,0-1.13.37-1.15,1.29,0,.37-.14.94,0,1,.83.61.23,1.25-.06,1.6-.57.71-.21,1.29.06,1.83a2.39,2.39,0,0,0,3.2,1c1.54-.77,1.38-.9,1-2.8a3.26,3.26,0,0,1,0-1.78c.46-1.37,0-2.15-1.25-2.17Zm-32.33,0c-.92,0-.95,0-1.07,1.12,0,.44-.22.48-.54.66a3.61,3.61,0,0,0-2,2,1.72,1.72,0,0,0,0,1.5c.66,1.38.76,1.45,2.38,1.25.22,0,.46.19.68.29a.88.88,0,0,0,1.23-.2c.09-.13.21-.37.16-.45-.56-.93-.23-1.95-.23-2.91s-.32-2,.23-2.92a.43.43,0,0,0-.19-.34A2,2,0,0,0,47.47,126.35Zm38.45,7c.58.11.9-.1.79-.8a1.3,1.3,0,0,1,.68-1.38c.68-.48.74-.8.09-1.06s-.81-.74-.78-1.4,0-1.17,0-1.75c0-.19-.12-.54-.18-.54-.58,0-1.41-.19-1.71.15a16,16,0,0,0-2.11,3.17c-.41.78.08,1.41,1,1.43a4,4,0,0,0,.6,0c.53-.06.94,0,.83.77,0,.21,0,.44,0,.65C85,133.31,85.38,133.4,85.92,133.32Zm11.72-3.56h0c0,.21,0,.43,0,.65,0,.92.05,1.85.07,2.78l2.76.13h.2c.63,0,.93-.41,1-1,0-.34.25-.74-.54-.43-1.59.62-2,.12-1.87-1.57,0-.55.34-.51.67-.37.12.05.18.26.29.29a.91.91,0,0,0,1-.89c-.07-.56-.5-.31-.78-.35a5.47,5.47,0,0,0-.81,0c-.53,0-.45-.43-.41-.75s-.28-.92.39-1c.52,0,1-.06,1.55-.16.16,0,.28-.29.42-.44a1.77,1.77,0,0,0-.41-.26,1.32,1.32,0,0,0-.4,0l-3.13.18Zm-7.37,3.56A2.55,2.55,0,0,0,92.94,132a2.38,2.38,0,0,0-.32-2.92,1,1,0,0,1-.11-1.33,8.18,8.18,0,0,1,.44-.89c.26-.35.15-.46-.2-.46-1.21,0-2.41,0-3.62,0-.68,0-.43.66-.38,1,.09.56.3,0,.49,0a3.26,3.26,0,0,1,1.16-.09c.13,0,.34.41.32.6a2.1,2.1,0,0,1-.4.9c-.3.37-.62.54.18.68,1,.18,1.19.61,1,1.61-.11.73-.62,1.09-1.47,1-.23,0-.44-.25-.67-.32s-.49-.09-.52,0a1.38,1.38,0,0,0-.15.79C88.93,133.36,89.61,133.37,90.27,133.32Zm-77-7c-.14,0-.27,0-.4,0a2.43,2.43,0,0,0-2.16.75,3.09,3.09,0,0,0-.63,2.36c0,.43,0,.87,0,1.3a1.5,1.5,0,0,0,.19.78A4,4,0,0,0,14,133.3a2.08,2.08,0,0,0,1.18-.55c.17-.16.07-.65.09-1a1.77,1.77,0,0,0-.68,0c-1.4.5-1.91.39-2.63-.46-.55-.65-.25-1.38-.26-2.06,0-1.67.91-2.27,2.46-1.7.21.07.6.09.66,0a1.36,1.36,0,0,0,.06-.83c0-.13-.26-.28-.41-.29A9.77,9.77,0,0,0,13.29,126.35Zm21.37.35c-.1-.07-.32-.32-.54-.33-.94-.05-1.87,0-2.8,0-.19,0-.5,0-.54.11-.34.79-.62,1.6-.93,2.4.64,1.17.33,2.46.42,3.71,0,.25.11.68.22.7a1.51,1.51,0,0,0,.93-.14c.48-.26.45-.78.46-1.3a5,5,0,0,1,.63-2.92c0-.09.08-.23,0-.29s-.31-.29-.41-.47a4.6,4.6,0,0,1-.25-.74c.24-.06.49-.22.72-.18.48.09,1,.3,1.44.41S34.77,127.49,34.66,126.7Zm18.67,3.8a4.17,4.17,0,0,0-.38-1.57,1.79,1.79,0,0,0-3-.12l-.57.62a2.3,2.3,0,0,0-.32,2.65c1,1.41,1.39,1.41,2.78.84A2.17,2.17,0,0,0,53.33,130.5Zm-10.17.73v-.87c0-1.45-.46-2.06-1.71-2.26a2.8,2.8,0,0,0-1,0c-.19,0-.34.28-.51.43a3.62,3.62,0,0,0,.53.42c.22.12.49.13.7.26s.46.48,0,.76a5.32,5.32,0,0,0-1.47,1.45c-.59.87.44,1.12.22,1.7a2.65,2.65,0,0,0,1.08,0,.75.75,0,0,1,.59,0c1.51.44,1.52.4,1.53-1.26Zm-24.79,2.09a1.79,1.79,0,0,1,.4,0c.62.11.64-.32.6-.78-.09-1.06-.44-.1-.66-.1s-.29,0-.38,0c-.34-.25-.92-.54-.92-.82,0-.85.68-.31,1.06-.42a2.15,2.15,0,0,1,.8,0c.48,0,.53-.27.51-.67a6.31,6.31,0,0,1,0-.87,1.59,1.59,0,0,0-1-1.44,1.19,1.19,0,0,0-1.61.36c-.19.29-.55.47-.68.78a3.76,3.76,0,0,0-.53,1.77A2.19,2.19,0,0,0,18.37,133.32Zm5.84-3c0,.62,0,1.05,0,1.49a2,2,0,0,0,1.22,1.47c.6.08,1.22.07,1.55-.62a.69.69,0,0,0-.22-.59c-.9-.29-.93-.27-.94-.59,0-.57,0-1.16,0-1.73s.19-.88.79-.84c.13,0,.29-.33.43-.5-.13-.12-.25-.3-.4-.33-.36-.08-.85.17-.82-.58a2.55,2.55,0,0,0-.21-.72,2.27,2.27,0,0,0-.42.46C24.71,128.31,23.77,129.18,24.21,130.35Zm-3.1,3c1,.06,1.06,0,1.08-.72,0-.5,0-1,0-1.51,0-1.06,0-1.06,1.13-1.81a1,1,0,0,0,.28-.31c.09-.17.24-.48.19-.53a1.16,1.16,0,0,0-.62-.32c-.55-.09-1,.79-1.71,0-.42-.44-.82,0-.89.82-.1,1.19.29,2.42-.25,3.57a.54.54,0,0,0,.16.44A3.83,3.83,0,0,0,21.11,133.31Zm16-2.52a2.92,2.92,0,0,1,0-1.07c.17-.41.42-.91,1-.71l.57.17a3.06,3.06,0,0,0,0-.86c0-.12-.34-.25-.49-.21-1,.29-2,.57-2.49,1.73a2.12,2.12,0,0,0,.14,2.34,2.66,2.66,0,0,0,2.56,1.11c.26,0,.49-.42.7-.68.06-.07,0-.28,0-.4s-.18-.08-.27-.07C37.46,132.32,37.11,132.05,37.11,130.79Zm-2.42,0c0-.72,0-1.44,0-2.15,0-.47-.59-.84-1-.57a1.24,1.24,0,0,0-.67,1.19c.07.93,0,1.86,0,2.79a1.46,1.46,0,0,0,.33.91,1.35,1.35,0,0,0,.86.31c.55,0,.39-.45.4-.76C34.71,132,34.69,131.4,34.69,130.83Zm31-1.47a1.6,1.6,0,0,0,1.89-.79,1.68,1.68,0,0,0-.24-2.07,3.06,3.06,0,0,0-2.58.3c-.48.45-.82.93-.46,1.64S64.83,129.67,65.64,129.36Zm-36.59,1.45c0-.58,0-1.15,0-1.72,0-.2-.24-.52-.38-.53a3.67,3.67,0,0,0-1.14.13c-.05,0-.11.28-.07.37a3.36,3.36,0,0,1,0,3.32.58.58,0,0,0,.23.49c.8.32,1.35-.09,1.37-1Zm66.1-1c-.37.07-.89,0-1.08.24s-.13.81-.09,1.22.5.29.78.34a2.67,2.67,0,0,0,.4,0c1.06,0,1.78-.42,1.62-1C96.52,129.73,95.82,129.8,95.15,129.78Zm-29.31,1.36c.51,0,.9,0,1.3,0s.75-.06.59-.53c-.1-.29-.21-1.05-.89-.48-.22.18-.63.06-.93.14-.59.15-1.69-.42-1.69.34C64.24,131.7,65.38,130.82,65.84,131.14Zm-37.91-4.73a.69.69,0,0,0-.47.27c-.18.39.39.91,1,1,.39,0,.58-.06.61-.55C29.12,126.38,28.79,126.26,27.93,126.41Z"/><path d="M34.62,10.91c4.64,0,9.27,0,13.91,0,.87,0,.52.27.29.75-.91,1.92-1.77,3.86-2.63,5.8-.62,1.39-1.3,2.76-1.79,4.2a1.27,1.27,0,0,1-1.45,1c-4.63,0-9.27,0-13.91,0a7.25,7.25,0,0,0-1.4,0,.88.88,0,0,0-.54.6c0,.17.27.53.48.58A5.68,5.68,0,0,0,29,24h12.5c.47,0,.95,0,1.41,0,.06,0,.17.27.13.36-.65,1.6-2.8,6.72-3.09,8A2.32,2.32,0,0,1,38,34c-1.14,0-2.29,0-3.43,0H23.32c-.29,0-.67-.16-.74.43s.13.87.74.87c2.82,0,5.64,0,8.47,0h5.64c1,0,1,0,.49,1.16s-1.09,2.41-1.61,3.63S35.23,42.67,34.69,44c-.1.25-.26.46-.38.7-1.2,2.42-1.2,2.42-3.44,2.42H6.27a9.32,9.32,0,0,1-1.4,0c-.16,0-.41-.49-.4-.51,1.14-2.08,14.26-32,14.9-34.29a1.57,1.57,0,0,1,1.74-1.37C25.61,11,30.12,10.91,34.62,10.91Z"/><path d="M93.59,47.07q-7.05,0-14.1,0c-.28,0-.73-.11-.8-.3a1.36,1.36,0,0,1,.17-1C79.6,44.39,83,36.29,83.55,35a1.15,1.15,0,0,1,1.17-.63c1.94.05,3.89,0,5.84,0,1.14,0,1.15,0,.58-1.27q-2-4.42-4-8.85a.56.56,0,0,0-.41-.31.54.54,0,0,0-.37.34c-.37,1.22-8,19-9,21.41a1.76,1.76,0,0,1-1.9,1.35c-2.88-.09-5.77,0-8.66,0-.58,0-.71-.22-.45-.76.48-1,14.3-33.71,14.4-34,.41-1.35.41-1.36,1.71-1.36,3.23,0,6.45,0,9.67,0,.79,0,1.19.21,1.61,1.1,1.22,2.58,2.23,5.23,3.26,7.9s2.45,5.28,3.65,7.94c1.87,4.17,3.77,8.32,5.52,12.55.61,1.45,1.85,4.8,2,5.17s.43.72.35,1.15-.65.34-1,.34Q100.55,47.08,93.59,47.07Z"/><path d="M64.16,10.91H74.24a3.37,3.37,0,0,1,3.2,3.36,9.92,9.92,0,0,1-1.17,5.14C74.44,23,73.2,26.9,71.6,30.61c-.92,2.12-1.92,4.21-2.79,6.37-1,2.46-2,4.89-3.07,7.34a2.23,2.23,0,0,1-.2.55c-.24.3-.27.64-.66-.1-1.7-3.31-2.83-6.88-4.38-10.25-.93-2-.91-2,0-4.07.76-1.69,1.47-3.41,2.18-5.12a2.82,2.82,0,0,0,.24-1c0-.78-.32-1.22-1-1.23-1.61,0-3.23-.06-4.84,0a1.8,1.8,0,0,0-1.44,1c-1.38,2.32-3.7,7.69-3.82,8a1.85,1.85,0,0,1-2,1.47c-.94,0-2.92,0-3.23,0a2.94,2.94,0,0,0,.26.61c.79,1.7,4.37,9.72,5.55,12.11.24.48.07.73-.51.73-3.56,0-7.12,0-10.68,0-1.84,0-3.61-2-3.63-4,0-2.65,0-2.65,1.2-5.34,1.76-3.86,3.55-7.7,5.22-11.6.69-1.59,1.4-3.15,2.17-4.7.85-1.71,1.52-3.52,2.3-5.28a11.49,11.49,0,0,1,2.28-3.55,5,5,0,0,1,3.8-1.69C57.71,11,60.94,10.91,64.16,10.91Z"/><path d="M54.26,34.43h4.82c.39,0,.5.12.64.55,1,2.9,2.57,5.5,3.24,8.55a12.94,12.94,0,0,0,1.37,3.07c.19.38.15.46-.21.47-3.28,0-6.56,0-9.85,0a.8.8,0,0,1-.61-.31c-1-2.13-4.74-10.26-5.24-11.34a.65.65,0,0,1,.61-1Z"/><path d="M34.69,102.39c0-1,0-2,0-3,.06-1.72,1.55-2.83,3-2.14a2.17,2.17,0,0,1,1,1.89c.07,2.32,0,4.65,0,7a2.9,2.9,0,0,1-1.27,2.24,1.18,1.18,0,0,1-1.62-.11,3.38,3.38,0,0,1-1.14-2.53C34.71,104.57,34.69,103.48,34.69,102.39Z"/><path d="M51.63,102.62a21.92,21.92,0,0,1,0-2.81,5.59,5.59,0,0,1,.7-2.27A1.45,1.45,0,0,1,54,96.86a2.23,2.23,0,0,1,1.64,2c.12,1.53.7,3,.46,4.58-.06.41-.75,3.48-.8,3.76-.16.87-1,.9-1.47,1.19s-1.09-.2-1.35-.76a5.1,5.1,0,0,1-.84-2.88A17.28,17.28,0,0,0,51.63,102.62Z"/><path d="M22.17,99c0,1,.1,1.64-.54,2s-1.12.89-1.65.84a3.13,3.13,0,0,1-1.77-1,2.89,2.89,0,0,1-.44-1.51,2.17,2.17,0,0,1,.72-1.81,2.42,2.42,0,0,1,1.68-.73c.56,0,1.06.65,1.6,1S22.15,98.8,22.17,99Z"/><path d="M6.17,100.21c-.27,0-.54,0-.8,0a1,1,0,0,1-.92-.91,2.19,2.19,0,0,1,1.28-2.39,6.14,6.14,0,0,1,2.14-.14c.22,0,.52.46.59.77a1.94,1.94,0,0,1-1.89,2.67C6.44,100.22,6.3,100.21,6.17,100.21Z"/><path d="M66.2,115a1.32,1.32,0,0,1,1,2.06,3.55,3.55,0,0,1-1,1c-.38.26-.88-.13-.89-.64s0-1,0-1.49C65.36,115,65.38,115,66.2,115Z"/><path d="M17.36,115.45c-.19.28-.37.55-.56.81,0,0-.23-.1-.24-.17a5.89,5.89,0,0,1,0-.84.28.28,0,0,1,.13-.15,1.56,1.56,0,0,1,.53,0C17.28,115.13,17.31,115.33,17.36,115.45Z"/><path d="M42.35,115l.41.22L42,116.33a5.52,5.52,0,0,1-.84-1C41.06,115.15,41.3,115,42.35,115Z"/><path d="M70.9,117a2.92,2.92,0,0,1-.3-.77c0-.11.33-.34.36-.31a1.2,1.2,0,0,1,.4.52C71.39,116.52,71.16,116.7,70.9,117Z"/><path d="M28.32,116.13l-.22.57a1.78,1.78,0,0,1-.25-.38c0-.1.08-.23.13-.35Z"/><path d="M62.33,116.43c-.34.16-.52.31-.71.31s-.32-.35-.29-.39a1.16,1.16,0,0,1,.48-.43C61.88,115.89,62,116.14,62.33,116.43Z"/><path d="M13.64,116.13a2.61,2.61,0,0,1-.29-.77c0-.11.32-.34.36-.31a1.2,1.2,0,0,1,.4.52C14.13,115.65,13.9,115.82,13.64,116.13Z"/><path d="M80.26,131.14c-.05.37.2.91-.49.88s-1.12-.44-1.12-.87.55-.87,1.11-.88S80.26,130.31,80.26,131.14Z"/><path d="M79.73,127c.23.34.53.6.5.79a4.74,4.74,0,0,1-.49,1.08l-1-1.06Z"/><path d="M46.39,130.52a.72.72,0,0,1,0,.21c-.12.43.33,1-.31,1.28-.09,0-.33,0-.34-.07-.18-.64-.8-1.15-.53-1.88a2.29,2.29,0,0,1,.68-.75,1.5,1.5,0,0,1,.41-.23,1.75,1.75,0,0,1,.09.38C46.4,129.81,46.39,130.17,46.39,130.52Z"/><path d="M85.19,129.46l-.41.81c-.17-.15-.41-.27-.47-.46-.19-.56.19-.9.54-1.23Z"/><path d="M50.42,130.12a7.76,7.76,0,0,1,.33-.84.45.45,0,0,1,.41-.15,1.89,1.89,0,0,1,.85,2c-.1.35-.46.61-.7.92a9.69,9.69,0,0,1-.87-1C50.34,130.93,50.42,130.65,50.42,130.12Z"/><path d="M41.55,131.91l-.2.54a2.6,2.6,0,0,0-.28-.29c-.38-.28-.24-.48,0-.76a2.15,2.15,0,0,0,.28-.67l.18.76C41.56,131.56,41.55,131.63,41.55,131.91Z"/><path d="M18.19,129.47a3.36,3.36,0,0,1-.11.65.34.34,0,0,1-.32.14,1.17,1.17,0,0,1-.39-.3c.18-.34.4-.66.6-1Z"/><path d="M66.7,127.86a6.11,6.11,0,0,1-.72,1c-.16.15-.74-.71-.62-1.1a4.43,4.43,0,0,1,.61-1Z"/></g></g></svg>