<svg xmlns="http://www.w3.org/2000/svg" viewBox="0 0 330.73 287.03"><defs><style>.cls-1,.cls-3{fill:#fff;}.cls-2,.cls-4{fill:#f58634;}.cls-3,.cls-4{fill-rule:evenodd;}</style></defs><title>logo-b</title><g id="Capa_2" data-name="Capa 2"><g id="Capa_1-2" data-name="Capa 1"><path class="cls-1" d="M0,270.09l5.37-5.34a15,15,0,0,0,4.9,3.78,13.75,13.75,0,0,0,5.92,1.28,9.77,9.77,0,0,0,6.27-1.89A6,6,0,0,0,24.83,263a6.34,6.34,0,0,0-2.72-5.2,11,11,0,0,0-6.93-2.09,13.75,13.75,0,0,0-4,.6A21.21,21.21,0,0,0,7,258.19l1.95-5.11a13.9,13.9,0,0,1-6.07-4.5,11.11,11.11,0,0,1-2-6.71A12.16,12.16,0,0,1,5.36,232q4.56-3.73,12.18-3.74c1,0,2.38,0,4,.14s2.78.12,3.4.12a25.1,25.1,0,0,0,3.34-.21,18.44,18.44,0,0,0,3.08-.64L37,226l-2,7.9-5,.34a9.81,9.81,0,0,1,2.38,3.44,10.89,10.89,0,0,1,.79,4.2,10.19,10.19,0,0,1-1.64,5.68,16.16,16.16,0,0,1-5.18,4.7,15.88,15.88,0,0,1,5.61,5,11.72,11.72,0,0,1,1.82,6.47,12.19,12.19,0,0,1-4.87,9.79,18.5,18.5,0,0,1-12.13,4,23.49,23.49,0,0,1-9.6-1.87A18.84,18.84,0,0,1,0,270.09m9.36-28.16a6.79,6.79,0,0,0,2.08,5.21A7.83,7.83,0,0,0,17,249.09a7.66,7.66,0,0,0,5.48-2,6.76,6.76,0,0,0,2.13-5.14,6.54,6.54,0,0,0-2.14-5,7.76,7.76,0,0,0-5.47-2,7.85,7.85,0,0,0-5.48,2A6.49,6.49,0,0,0,9.36,241.93Z"/><path class="cls-1" d="M43.27,247.32l15.6-9.57A6.59,6.59,0,0,0,56.42,236a8.62,8.62,0,0,0-3.22-.57,9.53,9.53,0,0,0-7.14,2.94,10.21,10.21,0,0,0-2.86,7.42c0,.42,0,.73,0,.93s0,.4,0,.59M68,259.48a30,30,0,0,1-7.15,3.46,24.82,24.82,0,0,1-7.52,1.15,19.43,19.43,0,0,1-7.15-1.31,18.19,18.19,0,0,1-6-3.84,18,18,0,0,1-4.1-19.81,19,19,0,0,1,10-9.7,19.63,19.63,0,0,1,7.23-1.27A18.05,18.05,0,0,1,63,230.8a20.11,20.11,0,0,1,7.06,7.69l-24,14.87a10.58,10.58,0,0,0,3.47,2.17,11.68,11.68,0,0,0,4.19.72,14.17,14.17,0,0,0,4.91-1,30.89,30.89,0,0,0,5.88-3Z"/><path class="cls-1" d="M68.68,246.12a17.69,17.69,0,0,1,1.38-7,17.35,17.35,0,0,1,4.09-5.83,17.87,17.87,0,0,1,6-3.83,19.87,19.87,0,0,1,14.28,0,18.34,18.34,0,0,1,6.09,3.87,17.34,17.34,0,0,1,5.4,12.75,17.79,17.79,0,0,1-1.38,7,17.31,17.31,0,0,1-4,5.82,17.8,17.8,0,0,1-6,3.8,19.84,19.84,0,0,1-7.23,1.34,19.33,19.33,0,0,1-7.14-1.31,18.22,18.22,0,0,1-10-9.74,17.49,17.49,0,0,1-1.4-6.92m8.78,0a10,10,0,0,0,2.81,7.23,9.72,9.72,0,0,0,13.93-.08,10.48,10.48,0,0,0,.1-14.37,10.07,10.07,0,0,0-14,0A9.82,9.82,0,0,0,77.46,246.12Z"/><path class="cls-1" d="M148.88,263.88V229l7.9-.54v5a13.6,13.6,0,0,1,4.42-4,11.31,11.31,0,0,1,5.45-1.32q5.08,0,7.8,3.3c1.81,2.21,2.72,5.36,2.72,9.48v22.48l-8.64.54V243.43q0-4.27-1.07-6a4,4,0,0,0-3.65-1.68,5.62,5.62,0,0,0-4.75,2.11q-1.6,2.11-1.61,6.2v19.25Z"/><path class="cls-1" d="M178.56,258.83l5.28-5.41a11.93,11.93,0,0,0,3.57,2.7,9.19,9.19,0,0,0,4,.88,6.13,6.13,0,0,0,3.61-.92,3,3,0,0,0,1.31-2.58q0-2.14-4.59-3.5c-1.13-.34-2-.61-2.65-.83-3.34-1.11-5.75-2.5-7.23-4.13a9,9,0,0,1-2.22-6.26,9.69,9.69,0,0,1,3.53-7.74,13.66,13.66,0,0,1,9.17-3,15.68,15.68,0,0,1,6.58,1.4,19.68,19.68,0,0,1,5.9,4.28L199,238.35a11.81,11.81,0,0,0-3.1-2.54,6.82,6.82,0,0,0-3.24-.83,4.56,4.56,0,0,0-2.93.86,2.92,2.92,0,0,0,.25,4.7,23.07,23.07,0,0,0,5.85,2.26q5.27,1.62,7.42,3.93a8.73,8.73,0,0,1,2.16,6.22,10.27,10.27,0,0,1-3.71,8.25c-2.46,2.11-5.76,3.15-9.87,3.15a18.49,18.49,0,0,1-7.19-1.4,18.85,18.85,0,0,1-6.1-4.13"/><path class="cls-1" d="M227.32,264.08v-3.51a10.47,10.47,0,0,1-3.89,2.65,14.09,14.09,0,0,1-5.08.87,12.37,12.37,0,0,1-9-3.41,11.6,11.6,0,0,1-3.51-8.69,11,11,0,0,1,3.5-8.52,13.11,13.11,0,0,1,9.26-3.22,15.28,15.28,0,0,1,4.48.63,12.21,12.21,0,0,1,3.69,1.85v-2.9a3.63,3.63,0,0,0-1.7-3.29,9.82,9.82,0,0,0-5.19-1.08,27.18,27.18,0,0,0-5.38.51,18.44,18.44,0,0,0-4.55,1.52l1.95-8.3c1.89-.41,3.65-.69,5.26-.88a38.24,38.24,0,0,1,4.47-.28q6.85,0,10.05,2.75t3.2,8.66v23.92Zm-12.9-12.34a4.52,4.52,0,0,0,1.64,3.7,8.46,8.46,0,0,0,9.08,0,4.35,4.35,0,0,0,1.63-3.61,4.62,4.62,0,0,0-1.61-3.73,6.76,6.76,0,0,0-4.46-1.35,7.27,7.27,0,0,0-4.63,1.32A4.37,4.37,0,0,0,214.42,251.75Z"/><path class="cls-1" d="M249.75,275.7l-9-1.28,7.35-16-15.18-28.55,9-1.42,9.17,17.71a25.16,25.16,0,0,1,1.32,3.83,3.35,3.35,0,0,1,.1.33c.24-.9.47-1.72.71-2.48s.45-1.37.64-1.88l7.91-17.5,8.58,1.42Z"/><path class="cls-1" d="M266.88,246.12a17.69,17.69,0,0,1,1.38-7,17.35,17.35,0,0,1,4.09-5.83,17.87,17.87,0,0,1,6-3.83,19.87,19.87,0,0,1,14.28,0,18.34,18.34,0,0,1,6.09,3.87,17.34,17.34,0,0,1,5.4,12.75,17.79,17.79,0,0,1-1.38,7,17.31,17.31,0,0,1-4,5.82,17.8,17.8,0,0,1-6,3.8,19.84,19.84,0,0,1-7.23,1.34,19.33,19.33,0,0,1-7.14-1.31,18.22,18.22,0,0,1-10-9.74,17.49,17.49,0,0,1-1.4-6.92m8.78,0a10,10,0,0,0,2.81,7.23,9.72,9.72,0,0,0,13.93-.08,10.48,10.48,0,0,0,.1-14.37,10.07,10.07,0,0,0-14,0A9.82,9.82,0,0,0,275.66,246.12Z"/><path class="cls-1" d="M303.85,258.83l5.28-5.41a11.93,11.93,0,0,0,3.57,2.7,9.19,9.19,0,0,0,4,.88,6.13,6.13,0,0,0,3.61-.92,3,3,0,0,0,1.31-2.58q0-2.14-4.59-3.5c-1.13-.34-2-.61-2.65-.83-3.34-1.11-5.75-2.5-7.23-4.13a9,9,0,0,1-2.22-6.26,9.69,9.69,0,0,1,3.53-7.74,13.66,13.66,0,0,1,9.17-3,15.68,15.68,0,0,1,6.58,1.4,19.68,19.68,0,0,1,5.9,4.28l-5.81,4.66a11.82,11.82,0,0,0-3.1-2.54A6.82,6.82,0,0,0,318,235a4.55,4.55,0,0,0-2.93.86,2.92,2.92,0,0,0,.25,4.7,23.07,23.07,0,0,0,5.85,2.26q5.27,1.62,7.42,3.93a8.73,8.73,0,0,1,2.16,6.22A10.27,10.27,0,0,1,327,261.2q-3.7,3.16-9.87,3.15a18.49,18.49,0,0,1-7.19-1.4,18.85,18.85,0,0,1-6.1-4.13"/><path class="cls-2" d="M121.72,247.32l15.6-9.57a6.59,6.59,0,0,0-2.45-1.73,8.62,8.62,0,0,0-3.22-.57,9.53,9.53,0,0,0-7.14,2.94,10.21,10.21,0,0,0-2.86,7.42c0,.42,0,.73,0,.93s0,.4,0,.59m24.73,12.16a30,30,0,0,1-7.15,3.46,24.82,24.82,0,0,1-7.52,1.15,19.43,19.43,0,0,1-7.15-1.31,18.19,18.19,0,0,1-6-3.84,18,18,0,0,1-4.1-19.81,19,19,0,0,1,10-9.7,19.63,19.63,0,0,1,7.23-1.27,18.05,18.05,0,0,1,9.69,2.64,20.11,20.11,0,0,1,7.06,7.69l-24,14.87a10.58,10.58,0,0,0,3.47,2.17,11.68,11.68,0,0,0,4.19.72,14.17,14.17,0,0,0,4.91-1,30.89,30.89,0,0,0,5.88-3Z"/><polygon class="cls-1" points="43.46 283 43.46 268.98 46.23 268.8 46.23 282.81 43.46 283"/><path class="cls-1" d="M47.51,283V272.61l2.35-.16v1.49a4,4,0,0,1,1.31-1.2,3.36,3.36,0,0,1,1.62-.39,2.83,2.83,0,0,1,2.32,1,4.32,4.32,0,0,1,.81,2.81v6.67l-2.57.16V276.9a3.55,3.55,0,0,0-.32-1.77,1.19,1.19,0,0,0-1.08-.5,1.67,1.67,0,0,0-1.41.62,3,3,0,0,0-.48,1.84v5.72Z"/><path class="cls-1" d="M56.25,284.82l1.59-1.58a4.45,4.45,0,0,0,1.45,1.12,4.08,4.08,0,0,0,1.76.38,2.9,2.9,0,0,0,1.86-.56,1.79,1.79,0,0,0,.71-1.46,1.88,1.88,0,0,0-.81-1.54,3.28,3.28,0,0,0-2.06-.62,4.08,4.08,0,0,0-1.18.18,6.29,6.29,0,0,0-1.26.56l.58-1.52a4.12,4.12,0,0,1-1.8-1.34,3.3,3.3,0,0,1-.61-2,3.61,3.61,0,0,1,1.36-2.94,5.54,5.54,0,0,1,3.62-1.11c.31,0,.71,0,1.2,0l1,0a7.52,7.52,0,0,0,1-.06,5.5,5.5,0,0,0,.92-.19l1.68-.49-.6,2.35-1.48.1a2.91,2.91,0,0,1,.71,1,3.24,3.24,0,0,1,.23,1.25,3,3,0,0,1-.49,1.69,4.8,4.8,0,0,1-1.54,1.4A4.73,4.73,0,0,1,65.75,281a3.48,3.48,0,0,1,.54,1.92,3.62,3.62,0,0,1-1.45,2.91,5.49,5.49,0,0,1-3.6,1.19,7,7,0,0,1-2.85-.55,5.59,5.59,0,0,1-2.14-1.65M59,276.46a2,2,0,0,0,.62,1.55,2.32,2.32,0,0,0,1.65.58,2.27,2.27,0,0,0,1.63-.6,2,2,0,0,0,.63-1.53,1.94,1.94,0,0,0-.63-1.5,2.3,2.3,0,0,0-1.62-.59,2.33,2.33,0,0,0-1.63.59A1.93,1.93,0,0,0,59,276.46Z"/><path class="cls-1" d="M69.1,278.06l4.63-2.84a2,2,0,0,0-.73-.51,2.56,2.56,0,0,0-1-.17,2.83,2.83,0,0,0-2.12.87,3,3,0,0,0-.85,2.2c0,.12,0,.22,0,.28s0,.12,0,.17m7.34,3.61a8.88,8.88,0,0,1-2.12,1,7.37,7.37,0,0,1-2.23.34,5.77,5.77,0,0,1-2.12-.39,5.4,5.4,0,0,1-1.77-1.14A5.34,5.34,0,0,1,67,275.62a5.63,5.63,0,0,1,3-2.88,5.83,5.83,0,0,1,2.15-.38,5.36,5.36,0,0,1,2.88.79,6,6,0,0,1,2.1,2.28l-7.12,4.42a3.14,3.14,0,0,0,1,.65,3.48,3.48,0,0,0,1.24.21,4.2,4.2,0,0,0,1.46-.28,9.15,9.15,0,0,0,1.74-.9Z"/><path class="cls-1" d="M77.17,283V272.61l2.35-.16v1.49a4,4,0,0,1,1.31-1.2,3.36,3.36,0,0,1,1.62-.39,2.83,2.83,0,0,1,2.32,1,4.32,4.32,0,0,1,.81,2.81v6.67L83,283V276.9a3.55,3.55,0,0,0-.32-1.77,1.19,1.19,0,0,0-1.08-.5,1.67,1.67,0,0,0-1.41.62,3,3,0,0,0-.48,1.84v5.72Z"/><path class="cls-1" d="M86.76,283V272.61l2.59-.16v10.37Zm1.32-11.43-1.7-1.74,1.7-1.7,1.74,1.7Z"/><path class="cls-1" d="M92.6,278.06l4.63-2.84a2,2,0,0,0-.73-.51,2.56,2.56,0,0,0-1-.17,2.83,2.83,0,0,0-2.12.87,3,3,0,0,0-.85,2.2c0,.12,0,.22,0,.28s0,.12,0,.17m7.34,3.61a8.88,8.88,0,0,1-2.12,1,7.37,7.37,0,0,1-2.23.34,5.77,5.77,0,0,1-2.12-.39,5.4,5.4,0,0,1-1.77-1.14,5.34,5.34,0,0,1-1.22-5.88,5.63,5.63,0,0,1,3-2.88,5.83,5.83,0,0,1,2.15-.38,5.36,5.36,0,0,1,2.88.79,6,6,0,0,1,2.1,2.28l-7.12,4.42a3.14,3.14,0,0,0,1,.65,3.48,3.48,0,0,0,1.24.21,4.2,4.2,0,0,0,1.46-.28,9.15,9.15,0,0,0,1.74-.9Z"/><path class="cls-1" d="M100.75,283V272.61l2.35-.16v1.76a3.36,3.36,0,0,1,1.42-1.45,4.87,4.87,0,0,1,2.26-.46h.3l-.9,2.47a2.67,2.67,0,0,0-2.18.83,4.06,4.06,0,0,0-.69,2.62v4.61Z"/><path class="cls-1" d="M106.67,271.26l2-3.39h2.17L108,271.26Zm.14,11.71V272.61l2.59-.16v10.37Z"/><path class="cls-1" d="M116.5,283v-1a3.1,3.1,0,0,1-1.16.79,4.18,4.18,0,0,1-1.51.26,3.67,3.67,0,0,1-2.67-1,3.44,3.44,0,0,1-1-2.58,3.27,3.27,0,0,1,1-2.53,3.9,3.9,0,0,1,2.75-1,4.53,4.53,0,0,1,1.33.19,3.63,3.63,0,0,1,1.1.55v-.86a1.08,1.08,0,0,0-.5-1,2.92,2.92,0,0,0-1.54-.32,8.08,8.08,0,0,0-1.6.15,5.46,5.46,0,0,0-1.35.45l.58-2.46c.56-.12,1.08-.2,1.56-.26a11.29,11.29,0,0,1,1.33-.08,4.51,4.51,0,0,1,3,.82,3.21,3.21,0,0,1,.95,2.57v7.1Zm-3.83-3.66a1.34,1.34,0,0,0,.49,1.1,2.11,2.11,0,0,0,1.36.4,2.09,2.09,0,0,0,1.34-.39,1.29,1.29,0,0,0,.49-1.07,1.37,1.37,0,0,0-.48-1.11,2,2,0,0,0-1.32-.4,2.16,2.16,0,0,0-1.37.39A1.3,1.3,0,0,0,112.67,279.37Z"/><path class="cls-1" d="M133.39,281.49a4.13,4.13,0,0,1-1.49,1.16A4.8,4.8,0,0,1,130,283a5.24,5.24,0,0,1-1.92-.34,4.9,4.9,0,0,1-1.6-1.06,5,5,0,0,1-1.21-1.75,5.79,5.79,0,0,1,0-4.31,5.23,5.23,0,0,1,1.21-1.77,4.83,4.83,0,0,1,1.62-1,5.59,5.59,0,0,1,2-.33,4.41,4.41,0,0,1,1.72.32,4.08,4.08,0,0,1,1.38,1v-4.89l2.57-.16v14.16l-2.35.16Zm-6-3.77a3,3,0,0,0,.81,2.16,3,3,0,0,0,4.15,0,3.22,3.22,0,0,0,0-4.3,2.86,2.86,0,0,0-4.1,0A3,3,0,0,0,127.39,277.72Z"/><path class="cls-1" d="M138.81,278.06l4.63-2.84a2,2,0,0,0-.73-.51,2.56,2.56,0,0,0-1-.17,2.83,2.83,0,0,0-2.12.87,3,3,0,0,0-.85,2.2c0,.12,0,.22,0,.28s0,.12,0,.17m7.34,3.61a8.88,8.88,0,0,1-2.12,1,7.37,7.37,0,0,1-2.23.34,5.77,5.77,0,0,1-2.12-.39,5.4,5.4,0,0,1-1.77-1.14,5.34,5.34,0,0,1-1.22-5.88,5.63,5.63,0,0,1,3-2.88,5.83,5.83,0,0,1,2.15-.38,5.36,5.36,0,0,1,2.88.79,6,6,0,0,1,2.1,2.28l-7.12,4.42a3.14,3.14,0,0,0,1,.65,3.48,3.48,0,0,0,1.24.21,4.2,4.2,0,0,0,1.46-.28,9.15,9.15,0,0,0,1.74-.9Z"/><path class="cls-1" d="M152.41,283V272.61l2.35-.16v1.49a4,4,0,0,1,1.32-1.2,3.4,3.4,0,0,1,1.63-.39,3,3,0,0,1,1.61.43,2.53,2.53,0,0,1,1,1.23,4.62,4.62,0,0,1,1.39-1.27,3.33,3.33,0,0,1,1.63-.4,2.62,2.62,0,0,1,2.2,1,4.53,4.53,0,0,1,.75,2.83v6.67l-2.55.16v-6.53a2.41,2.41,0,0,0-.32-1.39,1.16,1.16,0,0,0-1-.44,1.58,1.58,0,0,0-1.36.62,3.12,3.12,0,0,0-.46,1.86v5.72l-2.51.16v-6.53a2.42,2.42,0,0,0-.31-1.4,1.13,1.13,0,0,0-1-.43,1.62,1.62,0,0,0-1.38.63,3.1,3.1,0,0,0-.47,1.85v5.72Z"/><path class="cls-1" d="M173.17,283v-1a3.11,3.11,0,0,1-1.16.79,4.18,4.18,0,0,1-1.51.26,3.67,3.67,0,0,1-2.67-1,3.44,3.44,0,0,1-1-2.58,3.27,3.27,0,0,1,1-2.53,3.9,3.9,0,0,1,2.75-1,4.53,4.53,0,0,1,1.33.19,3.63,3.63,0,0,1,1.1.55v-.86a1.08,1.08,0,0,0-.5-1,2.92,2.92,0,0,0-1.54-.32,8.08,8.08,0,0,0-1.6.15,5.45,5.45,0,0,0-1.35.45l.58-2.46c.56-.12,1.08-.2,1.56-.26a11.29,11.29,0,0,1,1.33-.08,4.51,4.51,0,0,1,3,.82,3.21,3.21,0,0,1,.95,2.57v7.1Zm-3.83-3.66a1.34,1.34,0,0,0,.49,1.1,2.51,2.51,0,0,0,2.7,0,1.29,1.29,0,0,0,.49-1.07,1.37,1.37,0,0,0-.48-1.11,2,2,0,0,0-1.32-.4,2.16,2.16,0,0,0-1.37.39A1.3,1.3,0,0,0,169.34,279.37Z"/><path class="cls-1" d="M181.71,283h-.2l-.69,0a3.78,3.78,0,0,1-3-1,4.86,4.86,0,0,1-.94-3.31v-3.89h-1.62l.62-2.23h1v-1.66l2.55-1.24v2.91h2.37v2.23h-2.37v3.91a2.38,2.38,0,0,0,.4,1.61,2,2,0,0,0,1.46.42h1Z"/><path class="cls-1" d="M184.25,278.06l4.63-2.84a2,2,0,0,0-.73-.51,2.56,2.56,0,0,0-1-.17,2.83,2.83,0,0,0-2.12.87,3,3,0,0,0-.85,2.2c0,.12,0,.22,0,.28s0,.12,0,.17m7.34,3.61a8.88,8.88,0,0,1-2.12,1,7.37,7.37,0,0,1-2.23.34,5.77,5.77,0,0,1-2.12-.39,5.4,5.4,0,0,1-1.77-1.14,5.34,5.34,0,0,1-1.22-5.88,5.63,5.63,0,0,1,3-2.88,5.83,5.83,0,0,1,2.15-.38,5.36,5.36,0,0,1,2.88.79,6,6,0,0,1,2.1,2.28l-7.12,4.42a3.14,3.14,0,0,0,1,.65,3.48,3.48,0,0,0,1.24.21,4.2,4.2,0,0,0,1.46-.28,9.15,9.15,0,0,0,1.74-.9Z"/><path class="cls-1" d="M192.4,283V272.61l2.35-.16v1.76a3.36,3.36,0,0,1,1.42-1.45,4.87,4.87,0,0,1,2.26-.46h.3l-.9,2.47a2.67,2.67,0,0,0-2.18.83,4.06,4.06,0,0,0-.69,2.62v4.61Z"/><path class="cls-1" d="M198.46,283V272.61l2.59-.16v10.37Zm1.32-11.43-1.7-1.74,1.7-1.7,1.74,1.7Z"/><path class="cls-1" d="M208.15,283v-1a3.1,3.1,0,0,1-1.16.79,4.18,4.18,0,0,1-1.51.26,3.67,3.67,0,0,1-2.67-1,3.45,3.45,0,0,1-1-2.58,3.27,3.27,0,0,1,1-2.53,3.9,3.9,0,0,1,2.75-1,4.53,4.53,0,0,1,1.33.19,3.63,3.63,0,0,1,1.1.55v-.86a1.08,1.08,0,0,0-.5-1,2.92,2.92,0,0,0-1.54-.32,8.08,8.08,0,0,0-1.6.15,5.45,5.45,0,0,0-1.35.45l.58-2.46c.56-.12,1.08-.2,1.56-.26a11.29,11.29,0,0,1,1.33-.08,4.51,4.51,0,0,1,3,.82,3.21,3.21,0,0,1,.95,2.57v7.1Zm-3.83-3.66a1.34,1.34,0,0,0,.49,1.1,2.51,2.51,0,0,0,2.7,0,1.29,1.29,0,0,0,.49-1.07,1.37,1.37,0,0,0-.48-1.11,2,2,0,0,0-1.32-.4,2.16,2.16,0,0,0-1.37.39A1.3,1.3,0,0,0,204.32,279.37Z"/><polygon class="cls-1" points="211.61 282.98 211.61 268.82 214.17 268.66 214.17 282.81 211.61 282.98"/><path class="cls-1" d="M217.43,278.06l4.63-2.84a2,2,0,0,0-.73-.51,2.56,2.56,0,0,0-1-.17,2.83,2.83,0,0,0-2.12.87,3,3,0,0,0-.85,2.2c0,.12,0,.22,0,.28s0,.12,0,.17m7.34,3.61a8.88,8.88,0,0,1-2.12,1,7.37,7.37,0,0,1-2.23.34,5.77,5.77,0,0,1-2.12-.39,5.4,5.4,0,0,1-1.77-1.14,5.34,5.34,0,0,1-1.22-5.88,5.63,5.63,0,0,1,3-2.88,5.83,5.83,0,0,1,2.15-.38,5.36,5.36,0,0,1,2.88.79,6,6,0,0,1,2.1,2.28l-7.12,4.42a3.14,3.14,0,0,0,1,.65,3.48,3.48,0,0,0,1.24.21,4.2,4.2,0,0,0,1.46-.28,9.15,9.15,0,0,0,1.74-.9Z"/><path class="cls-1" d="M224.88,281.47l1.57-1.61a3.53,3.53,0,0,0,1.06.8,2.72,2.72,0,0,0,1.19.26,1.82,1.82,0,0,0,1.07-.27.89.89,0,0,0,.39-.77q0-.64-1.36-1l-.79-.25a5,5,0,0,1-2.15-1.23,2.68,2.68,0,0,1-.66-1.86,2.88,2.88,0,0,1,1-2.3,4.06,4.06,0,0,1,2.72-.89,4.66,4.66,0,0,1,2,.41,5.85,5.85,0,0,1,1.75,1.27L231,275.39a3.5,3.5,0,0,0-.92-.76,2,2,0,0,0-1-.25,1.35,1.35,0,0,0-.87.25.87.87,0,0,0,.07,1.4,6.85,6.85,0,0,0,1.74.67,5,5,0,0,1,2.2,1.17,2.59,2.59,0,0,1,.64,1.85,3.05,3.05,0,0,1-1.1,2.45,4.36,4.36,0,0,1-2.93.94,5.49,5.49,0,0,1-2.14-.41,5.6,5.6,0,0,1-1.81-1.23"/><path class="cls-3" d="M258.32,32.92a11.17,11.17,0,0,0-15.1-3.34l-.4.24-46.7,31.1A11.21,11.21,0,0,0,193,76.41h0a11.21,11.21,0,0,0,15.49,3.11L245.32,55A89.34,89.34,0,0,1,215,169.11l-.13.08-.12.09a89.34,89.34,0,0,1-123.68-24.8l-.08-.13-.09-.12A89.34,89.34,0,0,1,115.71,20.55l.13-.08a11.17,11.17,0,0,0-12.39-18.6,111.68,111.68,0,1,0,154.86,31Z"/><path class="cls-4" d="M174.66,88.64a11.17,11.17,0,0,0-14.74-3.56c-.25.14-.51.29-.76.45l-46.7,31.1a11.21,11.21,0,0,0-3.11,15.49h0a11.21,11.21,0,0,0,15.49,3.11l46.7-31.1c.25-.16.48-.34.71-.53A11.17,11.17,0,0,0,174.66,88.64Z"/></g></g></svg>