<svg xmlns="http://www.w3.org/2000/svg" viewBox="0 0 130.35 63.19"><g id="Capa_2" data-name="Capa 2"><g id="Capa_1-2" data-name="Capa 1"><path d="M68.86.14H2A2,2,0,0,0,0,2.2V42.33a2,2,0,0,0,2,2.06H68.86a2,2,0,0,0,2-2.06V2.2A2,2,0,0,0,68.86.14ZM70.6,42.33a1.77,1.77,0,0,1-1.74,1.8H2a1.78,1.78,0,0,1-1.75-1.8V2.2A1.78,1.78,0,0,1,2,.4H68.86A1.77,1.77,0,0,1,70.6,2.2ZM13,32.52a4.32,4.32,0,0,0,1.7,1.17,6,6,0,0,0,2.24.4,7.12,7.12,0,0,0,2.38-.4,7.23,7.23,0,0,0,2.11-1.15A6.49,6.49,0,0,0,23,30.79a5.92,5.92,0,0,0,.81-2.1,4.85,4.85,0,0,0-.05-2.12,4,4,0,0,0-.93-1.74,4.5,4.5,0,0,0-1.7-1.15,6,6,0,0,0-2.25-.4,7.28,7.28,0,0,0-4.51,1.55,6.68,6.68,0,0,0-1.55,1.73,5.91,5.91,0,0,0-.8,2.13,4.81,4.81,0,0,0,0,2.11A3.83,3.83,0,0,0,13,32.52Zm2.88-3.72a1.85,1.85,0,0,1,.27-.72,2.19,2.19,0,0,1,.52-.58,2.6,2.6,0,0,1,.71-.39A2.63,2.63,0,0,1,18,27h.19a2.06,2.06,0,0,1,.76.13,1.53,1.53,0,0,1,.57.39,1.44,1.44,0,0,1,.32.58,1.74,1.74,0,0,1,0,.72,1.87,1.87,0,0,1-.27.71,2.25,2.25,0,0,1-.53.59,2.46,2.46,0,0,1-.71.39,2.44,2.44,0,0,1-.8.13,2.06,2.06,0,0,1-.76-.13,1.55,1.55,0,0,1-.57-.4,1.33,1.33,0,0,1-.32-.58A1.69,1.69,0,0,1,15.92,28.8Zm21.16-5.44-1.9,10.76h-4l-2.52-5.6a7,7,0,0,1,0,.77c0,.28-.07.6-.13.94l-.69,3.89H23.82l1.9-10.76h4L32.27,29a5,5,0,0,1,0-.83c0-.3.1-.69.18-1.18l.64-3.6Zm7.1,10.76h4.4L46.5,23.36H41.94L36,34.12h4.4L41,32.7h3.09ZM41.8,30l1.73-3.24s.33,3.23.33,3.23Zm12.09,4.08a6.55,6.55,0,0,1-1.56-.17,4.87,4.87,0,0,1-1.3-.48,4.45,4.45,0,0,1-1.9-2,4.65,4.65,0,0,1-.26-2.78,6.08,6.08,0,0,1,.83-2.14,6.74,6.74,0,0,1,1.59-1.75,7,7,0,0,1,2.16-1.15,7.57,7.57,0,0,1,2.47-.4,7.23,7.23,0,0,1,1.33.13,6,6,0,0,1,1.24.4l-.7,3.83a3.24,3.24,0,0,0-1-.73,2.86,2.86,0,0,0-1.18-.24,2.67,2.67,0,0,0-1.7.56A2.37,2.37,0,0,0,53,28.66a1.65,1.65,0,0,0,.31,1.46,1.82,1.82,0,0,0,1.46.54A3.72,3.72,0,0,0,56,30.44a8.25,8.25,0,0,0,1.46-.73l-.84,3.89a9.36,9.36,0,0,1-1.4.37A7.87,7.87,0,0,1,53.89,34.09ZM13.83,20.35h1.7l.18,1h.86l-.69-3.86h-.72l-3.08,3.86H13Zm1.39-1.73.17,1h-1Zm2.57,1.59a1.72,1.72,0,0,1,.07-.8,2.12,2.12,0,0,1,.42-.78A3.45,3.45,0,0,1,19,18a3.74,3.74,0,0,1,.85-.42,3.14,3.14,0,0,1,.95-.15,2,2,0,0,1,1.05.25,1.44,1.44,0,0,1,.64.68l.05.12-.77.38-.06-.13a.9.9,0,0,0-.39-.41,1.65,1.65,0,0,0-1.3-.05,2.07,2.07,0,0,0-.58.28,2.4,2.4,0,0,0-.47.43,1.57,1.57,0,0,0-.27.51,1.06,1.06,0,0,0-.05.49.79.79,0,0,0,.19.39,1,1,0,0,0,.38.27,1.83,1.83,0,0,0,1.35-.07,2.29,2.29,0,0,0,.69-.45l.07-.07.61.41-.12.11a2.84,2.84,0,0,1-.47.37,3.19,3.19,0,0,1-.55.29,5.58,5.58,0,0,1-.58.18,3.05,3.05,0,0,1-.6.06,2.13,2.13,0,0,1-.86-.16,1.43,1.43,0,0,1-.62-.44A1.46,1.46,0,0,1,17.79,20.21Zm8.78-.57a2.16,2.16,0,0,0,.38-.36,1.8,1.8,0,0,0,.23-.46,1,1,0,0,0,0-.5.93.93,0,0,0-.6-.7,1.29,1.29,0,0,0-.53-.1H24.2L23,21.38h.84l.41-1.33h.54l.72,1.33h1L25.77,20a2.13,2.13,0,0,0,.33-.11A1.66,1.66,0,0,0,26.57,19.64Zm-.77-.37a.81.81,0,0,1-.27.05h-1l.33-1.07H26a.72.72,0,0,1,.22,0,.42.42,0,0,1,.15.11.35.35,0,0,1,.06.14.39.39,0,0,1,0,.21.61.61,0,0,1-.11.21.9.9,0,0,1-.2.19A1,1,0,0,1,25.8,19.27Zm3.62-1-.26.83h2.06l-.23.74H28.93l-.26.82h2.22l-.22.74H27.6l1.2-3.86h3.07l-.23.73Zm6-.58a2.14,2.14,0,0,0-.82-.15H33.32l-1.2,3.86h1.37a2.73,2.73,0,0,0,.89-.15,3.29,3.29,0,0,0,.82-.4,3.14,3.14,0,0,0,.66-.6,2.33,2.33,0,0,0,.4-.74,1.58,1.58,0,0,0,.06-.77,1.42,1.42,0,0,0-.3-.63A1.51,1.51,0,0,0,35.43,17.67Zm0,1.74a1.47,1.47,0,0,1-.26.47,2.35,2.35,0,0,1-.43.4,2.24,2.24,0,0,1-.54.26,1.7,1.7,0,0,1-.59.1h-.45l.75-2.39h.53a1.21,1.21,0,0,1,.52.1.8.8,0,0,1,.34.25.86.86,0,0,1,.17.36A1,1,0,0,1,35.45,19.41Zm3.71-1.89L38,21.38h-.84l1.2-3.86Zm1.2,0h3.33l-.23.72H42.22l-1,3.14h-.84l1-3.14H40.14ZM44,21.38l.82-1h1.7l.19,1h.86l-.7-3.86h-.71l-3.09,3.86Zm2.21-2.76.18,1h-1ZM51,21.23a3.46,3.46,0,0,0,.82-.4,2.87,2.87,0,0,0,.65-.6,2.17,2.17,0,0,0,.41-.74,1.71,1.71,0,0,0,.06-.77,1.42,1.42,0,0,0-.3-.63,1.48,1.48,0,0,0-.6-.42,2.1,2.1,0,0,0-.82-.15H49.91l-1.2,3.86h1.38A2.73,2.73,0,0,0,51,21.23Zm-.45-3h.53a1.16,1.16,0,0,1,.51.1.9.9,0,0,1,.35.25.74.74,0,0,1,.16.36.88.88,0,0,1,0,.45,1.47,1.47,0,0,1-.26.47,2.35,2.35,0,0,1-.43.4,2.24,2.24,0,0,1-.54.26,1.74,1.74,0,0,1-.59.1h-.45Zm3.93.38a2.31,2.31,0,0,0-.43.78,1.59,1.59,0,0,0-.06.8,1.44,1.44,0,0,0,.31.66,1.49,1.49,0,0,0,.62.44,2.18,2.18,0,0,0,.87.16,3.08,3.08,0,0,0,.94-.15,3.84,3.84,0,0,0,.86-.43,2.87,2.87,0,0,0,.68-.62,2.23,2.23,0,0,0,.43-.78,1.59,1.59,0,0,0,.06-.8,1.39,1.39,0,0,0-.31-.66,1.68,1.68,0,0,0-.62-.45,2.67,2.67,0,0,0-1.81,0,3.61,3.61,0,0,0-.86.42A3.14,3.14,0,0,0,54.46,18.63Zm1.71-.36a1.9,1.9,0,0,1,.63-.11,1.58,1.58,0,0,1,.55.1,1,1,0,0,1,.37.27.7.7,0,0,1,.18.39,1,1,0,0,1,0,.49,1.63,1.63,0,0,1-.29.51,2.35,2.35,0,0,1-1,.71,1.8,1.8,0,0,1-1.19,0,1.09,1.09,0,0,1-.38-.27A.88.88,0,0,1,54.8,20a1.06,1.06,0,0,1,.05-.49,1.4,1.4,0,0,1,.27-.51,2.3,2.3,0,0,1,.46-.42A2.49,2.49,0,0,1,56.17,18.27ZM12.61,37.81a1.63,1.63,0,0,0,1-.31.88.88,0,0,0,.36-.72.9.9,0,0,0-.36-.71,1.57,1.57,0,0,0-1-.31,1.58,1.58,0,0,0-1,.31.91.91,0,0,0-.37.72.89.89,0,0,0,.37.71A1.58,1.58,0,0,0,12.61,37.81Zm-.76-1.47a1.18,1.18,0,0,1,.76-.22,1.14,1.14,0,0,1,.75.22.56.56,0,0,1,.22.45.54.54,0,0,1-.22.44,1.14,1.14,0,0,1-.75.22,1.18,1.18,0,0,1-.76-.22.56.56,0,0,1,0-.89Zm4,0a.52.52,0,0,0-.34-.47,1.09,1.09,0,0,0-.46-.1h-.61a.13.13,0,0,0-.14.13v1.74a.13.13,0,0,0,.14.13h.13a.13.13,0,0,0,.14-.13V37l.75.74a.17.17,0,0,0,.1,0h.15a.13.13,0,0,0,.12-.08.12.12,0,0,0,0-.14l-.66-.64a1.05,1.05,0,0,0,.38-.12A.48.48,0,0,0,15.84,36.35Zm-.55.14a.69.69,0,0,1-.26.06H14.7v-.41H15a.85.85,0,0,1,.26,0c.15.07.15.13.15.17S15.33,36.47,15.29,36.49Zm1.51-.15a.56.56,0,0,0-.22.44.52.52,0,0,0,.23.44,1.22,1.22,0,0,0,.77.23,1.26,1.26,0,0,0,.62-.14.72.72,0,0,0,.26-.26h-.62a.13.13,0,0,1-.13-.13v-.1a.13.13,0,0,1,.13-.13h1a.13.13,0,0,1,.13.13.83.83,0,0,1-.08.32,1.09,1.09,0,0,1-.39.46,1.71,1.71,0,0,1-.9.22,1.66,1.66,0,0,1-1-.31.86.86,0,0,1-.37-.72.88.88,0,0,1,.36-.71,1.62,1.62,0,0,1,1-.31,2,2,0,0,1,.81.15.81.81,0,0,1,.35.28.17.17,0,0,1,0,.1.18.18,0,0,1-.07.08l-.12.05a.13.13,0,0,1-.17-.05.41.41,0,0,0-.21-.16,1.63,1.63,0,0,0-.59-.09A1.17,1.17,0,0,0,16.8,36.34Zm2.85,1.37.23-.45h1l.24.45a.12.12,0,0,0,.11.07h.14a.11.11,0,0,0,.11-.06.12.12,0,0,0,0-.13l-1-1.8a.14.14,0,0,0-.12-.07.12.12,0,0,0-.11.07l-1,1.8a.12.12,0,0,0,0,.13.11.11,0,0,0,.11.06h.14A.12.12,0,0,0,19.65,37.71Zm.73-1.32.29.51h-.58Zm3.68,1.28a.14.14,0,0,1-.07.12h-.06l-.08,0-1.63-1.31v1.18a.13.13,0,0,1-.13.13h-.15a.13.13,0,0,1-.13-.13V35.9a.13.13,0,0,1,.08-.12.12.12,0,0,1,.14,0l1.63,1.34V35.91a.13.13,0,0,1,.14-.13h.13a.13.13,0,0,1,.13.13Zm.47.11a.13.13,0,0,1-.13-.13V35.91a.12.12,0,0,1,.13-.13h.14a.13.13,0,0,1,.14.13v1.74a.13.13,0,0,1-.14.13Zm1.84-.43a.2.2,0,0,0,.08-.17s0,0-.12-.13a1.43,1.43,0,0,0-.35-.18l-.45-.17a.43.43,0,0,1-.28-.4.47.47,0,0,1,.24-.4,1,1,0,0,1,.53-.13.83.83,0,0,1,.43.1.94.94,0,0,1,.24.19.14.14,0,0,1,0,.13.14.14,0,0,1-.09.09l-.14,0a.13.13,0,0,1-.12,0l-.12-.1a.54.54,0,0,0-.51,0c-.08,0-.08.09-.08.11s0,0,.14.1l.26.09a3.24,3.24,0,0,1,.33.14,1.28,1.28,0,0,1,.31.2.43.43,0,0,1,.16.32.56.56,0,0,1-.23.47,1,1,0,0,1-.6.16,1.19,1.19,0,0,1-.56-.11.64.64,0,0,1-.27-.21l-.07-.11a.24.24,0,0,1,0-.12.16.16,0,0,1,.09-.07l.14,0a.13.13,0,0,1,.15.07l0,.07a.33.33,0,0,0,.13.09A.83.83,0,0,0,26.37,37.35Zm3.2-.83-.68,1.23a.15.15,0,0,1-.12.07h0a.12.12,0,0,1-.11-.07L28,36.52l-.43,1.18a.13.13,0,0,1-.12.08H27.3a.13.13,0,0,1-.11-.05.13.13,0,0,1,0-.12l.65-1.78a.14.14,0,0,1,.11-.09.14.14,0,0,1,.13.07l.71,1.32.75-1.32a.13.13,0,0,1,.12-.07.14.14,0,0,1,.12.09l.63,1.78a.13.13,0,0,1,0,.12.16.16,0,0,1-.11.05h-.15A.13.13,0,0,1,30,37.7Zm2.53,1.29a1.59,1.59,0,0,0,1-.31.89.89,0,0,0,0-1.43,1.55,1.55,0,0,0-1-.31,1.6,1.6,0,0,0-1,.31.89.89,0,0,0-.36.72.86.86,0,0,0,.37.71A1.55,1.55,0,0,0,32.1,37.81Zm-.75-1.47a1.17,1.17,0,0,1,.75-.22,1.14,1.14,0,0,1,.75.22.55.55,0,0,1,.23.45.53.53,0,0,1-.23.44,1.1,1.1,0,0,1-.75.22,1.16,1.16,0,0,1-.75-.22.56.56,0,0,1,0-.89Zm5.89,1.44-1.63-1.31v1.18a.13.13,0,0,1-.13.13h-.15a.13.13,0,0,1-.13-.13V35.9a.14.14,0,0,1,.07-.12.14.14,0,0,1,.15,0l1.63,1.34V35.91a.13.13,0,0,1,.13-.13h.14a.13.13,0,0,1,.13.13v1.76a.14.14,0,0,1-.07.12h-.06Zm1.65-2.06a.15.15,0,0,0-.12.07l-1,1.8a.15.15,0,0,0,0,.13.13.13,0,0,0,.12.06H38a.12.12,0,0,0,.12-.07l.23-.45h1l.23.45a.15.15,0,0,0,.12.07h.14a.11.11,0,0,0,.11-.06.12.12,0,0,0,0-.13l-1-1.8A.15.15,0,0,0,38.89,35.72ZM38.6,36.9l.29-.51.29.51Zm3.07.9a1.53,1.53,0,0,1-.87-.25.86.86,0,0,1,0-1.53,1.64,1.64,0,0,1,.88-.24h0a2.79,2.79,0,0,1,.53,0,1.32,1.32,0,0,1,.3.09l.09.05a.13.13,0,0,1,.08.12v.1a.11.11,0,0,1-.06.11.13.13,0,0,1-.12,0l-.11-.05-.28-.08a1.5,1.5,0,0,0-1.08.13.53.53,0,0,0,0,1,1.15,1.15,0,0,0,.62.18,2,2,0,0,0,.47-.05,1.07,1.07,0,0,0,.27-.09l.09,0a.15.15,0,0,1,.13,0,.15.15,0,0,1,.07.11v.1a.14.14,0,0,1-.07.12l-.09,0a1.8,1.8,0,0,1-.33.1A2.92,2.92,0,0,1,41.67,37.8Zm1.63-2a.13.13,0,0,1,.13.13v1.74a.13.13,0,0,1-.13.13h-.15a.13.13,0,0,1-.13-.13V35.91a.13.13,0,0,1,.13-.13Zm1.82,0a1.58,1.58,0,0,0-1,.31.89.89,0,0,0-.36.72.88.88,0,0,0,.36.71,1.58,1.58,0,0,0,1,.31,1.63,1.63,0,0,0,1-.31.88.88,0,0,0,.36-.72.86.86,0,0,0-.37-.71A1.52,1.52,0,0,0,45.12,35.76Zm.75,1.47a1.39,1.39,0,0,1-1.5,0,.55.55,0,0,1,0-.89,1.14,1.14,0,0,1,.75-.22,1.16,1.16,0,0,1,.75.22.57.57,0,0,1,.23.45A.55.55,0,0,1,45.87,37.23Zm.94.42V35.9a.13.13,0,0,1,.21-.1l1.64,1.34V35.91a.13.13,0,0,1,.13-.13h.13a.13.13,0,0,1,.14.13v1.76a.13.13,0,0,1-.08.12h-.06l-.08,0-1.63-1.31v1.18a.13.13,0,0,1-.13.13h-.14A.13.13,0,0,1,46.81,37.65Zm3.69-1.93a.14.14,0,0,0-.12.07l-1,1.8a.11.11,0,0,0,0,.13.13.13,0,0,0,.11.06h.15a.11.11,0,0,0,.11-.07l.24-.45h1l.24.45a.14.14,0,0,0,.12.07h.13a.14.14,0,0,0,.12-.06.15.15,0,0,0,0-.13l-1-1.8A.14.14,0,0,0,50.5,35.72Zm-.29,1.18.28-.51.29.51Zm2.13-1v1.51h.56a.13.13,0,0,1,.13.13v.1a.13.13,0,0,1-.13.13h-.84a.13.13,0,0,1-.13-.13V35.91a.13.13,0,0,1,.13-.13h.15A.13.13,0,0,1,52.34,35.91Zm4.31.2a1.46,1.46,0,0,0-.56-.27,1.41,1.41,0,0,0-.37-.06h-.83a.13.13,0,0,0-.14.13v1.74a.13.13,0,0,0,.14.13h.82a1.55,1.55,0,0,0,.4-.06,1.29,1.29,0,0,0,.55-.27.87.87,0,0,0,.29-.67A.86.86,0,0,0,56.65,36.11Zm-.28,1.07a1,1,0,0,1-.39.2,1,1,0,0,1-.27,0h-.55V36.14h.56a1,1,0,0,1,.26,0,1,1,0,0,1,.38.19.52.52,0,0,1,.18.41A.5.5,0,0,1,56.37,37.18Zm1.32-1v.36h.91a.13.13,0,0,1,.13.13v.11a.13.13,0,0,1-.13.14h-.91v.54h.91a.13.13,0,0,1,.13.13v.1a.13.13,0,0,1-.13.13H57.41a.13.13,0,0,1-.13-.13V35.91a.13.13,0,0,1,.13-.13H58.6a.13.13,0,0,1,.13.13V36a.13.13,0,0,1-.13.14ZM12.34,38.62a.12.12,0,0,0-.11.07l-1,1.8a.15.15,0,0,0,0,.13.14.14,0,0,0,.12.06h.14a.14.14,0,0,0,.12-.08l.23-.45h1l.24.45a.11.11,0,0,0,.11.07h.14a.11.11,0,0,0,.11-.06.12.12,0,0,0,0-.13l-1-1.8A.15.15,0,0,0,12.34,38.62Zm-.29,1.18.29-.51.28.51Zm3.86-.94A.15.15,0,0,1,16,39v.11a.14.14,0,0,1-.06.11.13.13,0,0,1-.12,0l-.11-.05-.27-.08a1.53,1.53,0,0,0-1.09.13.56.56,0,0,0-.31.48.53.53,0,0,0,.31.48,1.16,1.16,0,0,0,.63.18,2.19,2.19,0,0,0,.47-.05l.27-.08.09,0a.15.15,0,0,1,.13,0,.14.14,0,0,1,.06.12v.09a.12.12,0,0,1-.07.12l-.09,0a1.26,1.26,0,0,1-.33.1,2.26,2.26,0,0,1-.54.05,1.55,1.55,0,0,1-.87-.25.85.85,0,0,1,0-1.52,1.58,1.58,0,0,1,.88-.25h0a2.68,2.68,0,0,1,.52,0l.3.1Zm1.76.39a.52.52,0,0,0-.34-.47,1.13,1.13,0,0,0-.46-.1h-.62a.13.13,0,0,0-.13.13v1.74a.13.13,0,0,0,.13.13h.14a.12.12,0,0,0,.13-.13v-.64l.76.74a.17.17,0,0,0,.1,0h.15a.15.15,0,0,0,.12-.08.14.14,0,0,0,0-.15L17,39.82a1.27,1.27,0,0,0,.38-.11A.52.52,0,0,0,17.67,39.25Zm-.55.14a.69.69,0,0,1-.26.06h-.34V39h.34a.91.91,0,0,1,.26.05c.14.07.14.14.14.17S17.16,39.37,17.12,39.39Zm2.17-.58v.1a.13.13,0,0,1-.13.13h-.91v.36h.91a.13.13,0,0,1,.13.14v.11a.13.13,0,0,1-.13.13h-.91v.54h.91a.13.13,0,0,1,.13.14v.09a.13.13,0,0,1-.13.13H18a.13.13,0,0,1-.13-.13V38.81a.13.13,0,0,1,.13-.13h1.19A.13.13,0,0,1,19.29,38.81Zm1.49-.07a1.48,1.48,0,0,0-.38-.06h-.83a.13.13,0,0,0-.13.13v1.74a.13.13,0,0,0,.13.13h.83a1.51,1.51,0,0,0,.4,0,1.3,1.3,0,0,0,.55-.28.86.86,0,0,0,.29-.67.81.81,0,0,0-.31-.66A1.25,1.25,0,0,0,20.78,38.74Zm.27,1.35a.9.9,0,0,1-.38.19,1,1,0,0,1-.28,0h-.54V39h.55a1,1,0,0,1,.26,0,1,1,0,0,1,.39.2.49.49,0,0,1,.18.4A.54.54,0,0,1,21.05,40.09Zm1.17-1.28v1.74a.13.13,0,0,1-.14.13h-.15a.13.13,0,0,1-.13-.13V38.81a.13.13,0,0,1,.13-.13h.15A.13.13,0,0,1,22.22,38.81Zm1.62,0v.1a.13.13,0,0,1-.13.13H23.3v1.51a.13.13,0,0,1-.13.13H23a.13.13,0,0,1-.13-.13V39h-.42a.13.13,0,0,1-.14-.13v-.1a.13.13,0,0,1,.14-.13h1.23A.13.13,0,0,1,23.84,38.81Zm1.27-.19a.14.14,0,0,0-.12.07l-1,1.8a.11.11,0,0,0,0,.13.13.13,0,0,0,.11.06h.15a.13.13,0,0,0,.11-.08l.24-.45h1l.24.45a.12.12,0,0,0,.12.07h.13a.14.14,0,0,0,.12-.06.15.15,0,0,0,0-.13l-1-1.8A.14.14,0,0,0,25.11,38.62Zm-.29,1.18.29-.51.28.51Zm3.85-.94a.14.14,0,0,1,.08.12v.11a.17.17,0,0,1-.06.11.15.15,0,0,1-.13,0l-.11-.05-.27-.08a1.56,1.56,0,0,0-1.08.13.56.56,0,0,0-.31.48.53.53,0,0,0,.31.48,1.15,1.15,0,0,0,.62.18,2.12,2.12,0,0,0,.47-.05l.27-.08.09,0a.15.15,0,0,1,.13,0,.15.15,0,0,1,.07.12v.09a.14.14,0,0,1-.07.12l-.1,0a1.7,1.7,0,0,1-.32.1,2.36,2.36,0,0,1-.54.05,1.58,1.58,0,0,1-.88-.25.9.9,0,0,1-.46-.76.86.86,0,0,1,.46-.76,1.54,1.54,0,0,1,.88-.25h0a2.72,2.72,0,0,1,.53,0l.3.1Zm.64,0v1.74a.13.13,0,0,1-.13.13H29a.13.13,0,0,1-.13-.13V38.81a.13.13,0,0,1,.13-.13h.15A.13.13,0,0,1,29.31,38.81Zm1.78-.13.34-.24a.13.13,0,0,0,.06-.11.11.11,0,0,0-.06-.11l-.12-.08a.16.16,0,0,0-.16,0l-.4.36a.12.12,0,0,0-.05.1.09.09,0,0,0,0,.05,1.52,1.52,0,0,0-.91.3.91.91,0,0,0-.36.72.88.88,0,0,0,.37.72,1.61,1.61,0,0,0,1,.3,1.53,1.53,0,0,0,1-.31.88.88,0,0,0,.36-.71.91.91,0,0,0-.36-.72A1.43,1.43,0,0,0,31.09,38.68Zm.49,1.45a1.1,1.1,0,0,1-.75.22,1.14,1.14,0,0,1-.75-.22.55.55,0,0,1-.23-.44.57.57,0,0,1,.23-.45,1.2,1.2,0,0,1,.75-.22,1.14,1.14,0,0,1,.75.23.54.54,0,0,1,0,.88Zm3-1.32v1.76a.13.13,0,0,1-.07.12l-.06,0a.11.11,0,0,1-.08,0l-1.63-1.31v1.18a.13.13,0,0,1-.13.13h-.15a.13.13,0,0,1-.13-.13V38.8a.13.13,0,0,1,.08-.12.14.14,0,0,1,.14,0l1.63,1.35V38.81a.13.13,0,0,1,.14-.13h.13A.13.13,0,0,1,34.6,38.81Zm2.74-.07a1.48,1.48,0,0,0-.38-.06h-.83a.13.13,0,0,0-.13.13v1.74a.13.13,0,0,0,.13.13H37a1.51,1.51,0,0,0,.4,0,1.3,1.3,0,0,0,.55-.28.86.86,0,0,0,.29-.67.81.81,0,0,0-.31-.66A1.25,1.25,0,0,0,37.34,38.74Zm.28,1.35a1,1,0,0,1-.39.19,1,1,0,0,1-.28,0h-.54V39H37a1,1,0,0,1,.26,0,1,1,0,0,1,.39.2.49.49,0,0,1,.18.4A.57.57,0,0,1,37.62,40.09Zm2.19-1.28v.1a.13.13,0,0,1-.13.13h-.91v.36h.91a.13.13,0,0,1,.13.14v.11a.13.13,0,0,1-.13.13h-.91v.54h.91a.13.13,0,0,1,.13.14v.09a.13.13,0,0,1-.13.13H38.5a.13.13,0,0,1-.14-.13V38.81a.13.13,0,0,1,.14-.13h1.18A.13.13,0,0,1,39.81,38.81Zm3.69,0a.14.14,0,0,1,.08.12v.11a.14.14,0,0,1-.06.11.13.13,0,0,1-.12,0l-.11-.05L43,39.08a1.53,1.53,0,0,0-1.09.13.56.56,0,0,0-.31.48.53.53,0,0,0,.31.48,1.15,1.15,0,0,0,.62.18A2.21,2.21,0,0,0,43,40.3l.27-.08.08,0a.17.17,0,0,1,.14,0,.14.14,0,0,1,.06.12v.09a.14.14,0,0,1-.07.12l-.09,0a1.26,1.26,0,0,1-.33.1,2.26,2.26,0,0,1-.54.05,1.55,1.55,0,0,1-.87-.25.85.85,0,0,1,0-1.52,1.58,1.58,0,0,1,.88-.25h0a2.68,2.68,0,0,1,.52,0l.3.1Zm1.61-.2a1.62,1.62,0,0,0-1,.31.92.92,0,0,0-.37.72.89.89,0,0,0,.37.72,1.64,1.64,0,0,0,1,.3,1.51,1.51,0,0,0,1-.31.89.89,0,0,0,.37-.71.92.92,0,0,0-.37-.72A1.58,1.58,0,0,0,45.11,38.66Zm.75,1.47a1.39,1.39,0,0,1-1.5,0,.53.53,0,0,1-.23-.44.55.55,0,0,1,.23-.45,1.2,1.2,0,0,1,.75-.22,1.16,1.16,0,0,1,.75.23.55.55,0,0,1,0,.88Zm1.87.33v.09a.13.13,0,0,1-.13.13h-.84a.13.13,0,0,1-.13-.13V38.81a.13.13,0,0,1,.13-.13h.15a.13.13,0,0,1,.13.13v1.51h.56A.13.13,0,0,1,47.73,40.46Zm1.53-1.8a1.64,1.64,0,0,0-1,.31.91.91,0,0,0-.36.72.88.88,0,0,0,.37.72,1.59,1.59,0,0,0,1,.3,1.55,1.55,0,0,0,1-.31.88.88,0,0,0,.36-.71.91.91,0,0,0-.36-.72A1.63,1.63,0,0,0,49.26,38.66ZM50,40.13a1.12,1.12,0,0,1-.75.22,1.14,1.14,0,0,1-.75-.22.55.55,0,0,1-.23-.44.57.57,0,0,1,.23-.45,1.2,1.2,0,0,1,.75-.22,1.14,1.14,0,0,1,.75.23.54.54,0,0,1,0,.88Zm3.36-1.4L54,40.51a.13.13,0,0,1,0,.12.16.16,0,0,1-.11,0h-.15a.13.13,0,0,1-.12-.08l-.43-1.18-.68,1.23a.15.15,0,0,1-.12.07.12.12,0,0,1-.11-.07l-.67-1.22-.43,1.17a.13.13,0,0,1-.12.08h-.14a.13.13,0,0,1-.11,0,.13.13,0,0,1,0-.12l.65-1.78a.14.14,0,0,1,.11-.09.16.16,0,0,1,.13.07L52.38,40l.75-1.33a.13.13,0,0,1,.12-.07A.14.14,0,0,1,53.37,38.73Zm2.2.77a.4.4,0,0,0,.1-.27.49.49,0,0,0-.32-.44,1.06,1.06,0,0,0-.45-.11h-.61a.13.13,0,0,0-.13.13v1.74a.13.13,0,0,0,.13.13h.78a1.25,1.25,0,0,0,.59-.13.56.56,0,0,0,.32-.5.51.51,0,0,0-.21-.42A.86.86,0,0,0,55.57,39.5Zm-1-.46h.34a.51.51,0,0,1,.26.07c.09.06.09.11.09.12s0,.09-.1.11a.41.41,0,0,1-.23.07h-.36Zm.85,1.21a.78.78,0,0,1-.35.07h-.5v-.54h.5a.88.88,0,0,1,.33.08c.17.08.17.17.17.2S55.56,40.18,55.42,40.25Zm1.14-1.44v1.74a.13.13,0,0,1-.14.13h-.14a.13.13,0,0,1-.14-.13V38.81a.13.13,0,0,1,.14-.13h.14A.13.13,0,0,1,56.56,38.81Zm1.25-.19h0a.14.14,0,0,0-.11.07l-1,1.8a.15.15,0,0,0,0,.13.14.14,0,0,0,.12.06H57a.13.13,0,0,0,.12-.08l.23-.45h1l.24.45a.11.11,0,0,0,.11.07h.14a.11.11,0,0,0,.11-.06.12.12,0,0,0,0-.13l-1-1.8A.14.14,0,0,0,57.81,38.62Zm-.29,1.18.29-.51.29.51ZM22.59,11.37c-.25-1.48,1.24-3.17,4.21-4.75A39.48,39.48,0,0,1,38.15,3L38.58,3l.15.13v.08l-.1.13C30.69,4.83,24.83,8,25.27,10.59c.31,1.78,3.65,2.88,8.71,2.88a43.18,43.18,0,0,0,7.23-.66c7-1.22,12.8-3.82,14-6.31l.12-.07h0l.13.17c-.87,2.86-7.38,6-15.49,7.38a46.23,46.23,0,0,1-7.82.72C26.65,14.7,23,13.42,22.59,11.37Zm16.75.26a.13.13,0,0,1,.14.06.19.19,0,0,1,0,.13.14.14,0,0,1-.08.09,19.85,19.85,0,0,1-5.84.94,12.94,12.94,0,0,1-2.32-.2c-2-.35-3.24-1.16-3.51-2.27s.38-2.14,1.75-3.18a15.1,15.1,0,0,1,5.25-2.35.13.13,0,0,1,.14.06l0,.06a.11.11,0,0,1,0,.11s0,.07-.08.08a12.94,12.94,0,0,0-3.2,1.69c-1.29,1-1.88,2-1.66,2.92s1.44,1.74,3.29,2.07A16.65,16.65,0,0,0,39.34,11.63Zm-6-3.27a2.56,2.56,0,0,0,5.11,0,2.56,2.56,0,0,0-5.11,0Zm1,.83h0V9.1h.08v0h0V9l0-.06.05,0v0l0,0h.15v0l0-.06v0h0l0,0,0,0h0l0,0,0,0v0l0,0h-.15V8.49l0,0,0,0,0,0V8.27h0l-.09,0v0l0,0,0,0h0v0h0V7.94l0,0,0,0h-.07V7.74h0v0h0v0h.07l0,0h0v0h0v0h0v0h0l0,0h0l0,0h0v0l0,0h.08v0H35v0l0,0h0l0,0,0,0h0l0,0h0l0,0v0l0,0h.06l0,0,0,0v0h0V6.94h0v0l0,0h0l0,0,0,0h.09l0,0h0v0h0l0,0,0,0,0,0h.15l.07,0h0L36,6.6l0,0h0l.08,0,0,0,0,0V6.42l0,0h.14v0h0v0h-.09l0,0,0,0,0,0h0l0,0h0l0,0,0,0h0l0,.05h0l0,0h0L36,6.85h0v0L36,7V7h0V7.1l0,0v0l0,0H36l0,0,0,0v0h0v0l0,0h0v0l0,0v.15h0l0,0h0v0l0,0h.45l0,0,0,0,0,0h0l0,0,0,0h.37v0l0,0h0v0h0v.06h0V8h0l0,0v.19h0v.05h0v0h0v0h0l0,0,0,0h0l0,0v0h0v0h0l0,0v0l0,0h0v0h0l0,0h0l0,0h0v0l0,0h0v0h0l0,.06h0v0h0l0,0v0h-.25v0h0l-.38,0h0V9h.06l0,0h.06l0,0v0h0v0h0v0l0,0h-.06l0,0,0,0h0v.14h0l0,0h0v0h0v0h0v0h0v.05h0v0h0v0h0v0h0v.12h0v0h0v.12h0v0h0v0h0l0,0h0l0,.05-.06.19,0,0h-.06v0h-.08v0l0,0h0l.06-.06,0-.12H36.6l0,0,0,0h-.12l0,0h0v0h0l0,0h0v0l0,0h0l0,0h0v0h0v0H35.9l0,0,0-.05h0V9.69l0,0h-.1l0,0h0l0,0v0h0l0,0h-.06l0,0h0l0,0h0v0l0,0,0,0h0v0h0l0,0h-.09v0h0v0H35l0,0h-.07v0h0l0,0h0l0,0h0v0l-.11,0h0l0,0v0l0,0h-.13ZM3.55,49.82H5.27v.45H4.7v3.47h.57v.44H3.55v-.44h.57V50.27H3.55Zm5.63,2.39a1,1,0,0,1,.25.73,1.11,1.11,0,0,1-.12.5,1.14,1.14,0,0,1-.33.42,1.72,1.72,0,0,1-.55.3,2.39,2.39,0,0,1-.75.1,4.39,4.39,0,0,1-.85-.08,4.08,4.08,0,0,1-.76-.27v-.72h0a2.44,2.44,0,0,0,.76.42,2.5,2.5,0,0,0,.82.15,1.45,1.45,0,0,0,.84-.2.61.61,0,0,0,.3-.54.58.58,0,0,0-.15-.43.91.91,0,0,0-.43-.21,4.8,4.8,0,0,0-.47-.1l-.55-.09a1.78,1.78,0,0,1-.86-.42A1.13,1.13,0,0,1,6.09,51a1.1,1.1,0,0,1,.47-.9,1.89,1.89,0,0,1,1.17-.35,3.61,3.61,0,0,1,.84.09,3.4,3.4,0,0,1,.68.22v.68h0a2.08,2.08,0,0,0-.65-.35,2.63,2.63,0,0,0-.83-.14,1.3,1.3,0,0,0-.75.2.57.57,0,0,0-.28.5.56.56,0,0,0,.14.42.87.87,0,0,0,.49.24l.54.1.58.12A1.53,1.53,0,0,1,9.18,52.21Zm4.43-1.89a1.79,1.79,0,0,0-.63-.44,2.24,2.24,0,0,0-.84-.15,2.32,2.32,0,0,0-.84.15,1.92,1.92,0,0,0-.64.44,2.16,2.16,0,0,0-.41.73,3.11,3.11,0,0,0-.14,1,3.15,3.15,0,0,0,.14,1,2,2,0,0,0,.41.71,1.79,1.79,0,0,0,.64.44,2.35,2.35,0,0,0,1.68,0,1.74,1.74,0,0,0,.63-.45A2,2,0,0,0,14,53,3.4,3.4,0,0,0,14,51,2,2,0,0,0,13.61,50.32Zm-.43,3a1.43,1.43,0,0,1-2.08,0,2.47,2.47,0,0,1,0-2.63,1.41,1.41,0,0,1,2.08,0,2.47,2.47,0,0,1,0,2.63Zm3.32-3.69H17l-2.1,5.44h-.51Zm1.7,4.11V50.27h-.58v-.45h1.73v.45h-.57v3.47h.57v.44H17.62v-.44Zm2.71-3.4v1.19h2.3v.52h-2.3v1.62h2.3v.51H20.33V49.82h2.88v.52Zm5.81-.51a3.23,3.23,0,0,1,.78.3v.69h-.05a2.41,2.41,0,0,0-.71-.44,1.94,1.94,0,0,0-.76-.14,1.64,1.64,0,0,0-.6.1,1.52,1.52,0,0,0-.47.34,1.63,1.63,0,0,0-.32.55,2.62,2.62,0,0,0-.11.78,2.11,2.11,0,0,0,.13.79,1.58,1.58,0,0,0,.32.54,1.23,1.23,0,0,0,.48.32,1.57,1.57,0,0,0,.58.1,2.25,2.25,0,0,0,.78-.14,2.55,2.55,0,0,0,.69-.43h0v.68l-.29.13-.35.13a1.93,1.93,0,0,1-.38.09,2.29,2.29,0,0,1-.47,0,2.63,2.63,0,0,1-.86-.13,1.73,1.73,0,0,1-.67-.42A1.78,1.78,0,0,1,24,53a2.8,2.8,0,0,1-.16-1A3,3,0,0,1,24,51a1.9,1.9,0,0,1,1.11-1.15,2.5,2.5,0,0,1,.88-.15A2.8,2.8,0,0,1,26.72,49.83Zm4.84,3.91V50.82h-.9v-.4l.39,0a1,1,0,0,0,.32-.09.55.55,0,0,0,.21-.19.63.63,0,0,0,.09-.3h.46v3.93H33v.44H30.66v-.44Zm5.53-3.26-2,3.7h-.63l2.1-3.85H34.11v-.51h3Zm2.29,3.8a1.28,1.28,0,0,0,1.14-.55,4.21,4.21,0,0,0,0-3.43,1.44,1.44,0,0,0-2.29,0A3.12,3.12,0,0,0,37.87,52a3.2,3.2,0,0,0,.36,1.71A1.28,1.28,0,0,0,39.38,54.28Zm-.88-3a1.82,1.82,0,0,1,.14-.56.77.77,0,0,1,.28-.35.92.92,0,0,1,.46-.11.89.89,0,0,1,.46.11.87.87,0,0,1,.28.34,2,2,0,0,1,.14.56c0,.22,0,.47,0,.77s0,.56,0,.77a2.08,2.08,0,0,1-.14.56.77.77,0,0,1-.28.35.92.92,0,0,1-.46.11.82.82,0,0,1-.47-.12.69.69,0,0,1-.27-.35,1.77,1.77,0,0,1-.14-.55c0-.2,0-.46,0-.76S38.48,51.48,38.5,51.24Zm5.22.41a1.22,1.22,0,0,0,.21-.69.67.67,0,0,0-.23-.53.92.92,0,0,0-.62-.19,2.1,2.1,0,0,0-.58.09,2.26,2.26,0,0,0-.61.29h0V50a3.08,3.08,0,0,1,.56-.18,2.69,2.69,0,0,1,.67-.09,1.59,1.59,0,0,1,1,.32,1.08,1.08,0,0,1,.38.88,1.78,1.78,0,0,1-.06.47,1.65,1.65,0,0,1-.18.41,3,3,0,0,1-.27.35,4.51,4.51,0,0,1-.38.39c-.21.21-.42.41-.64.6l-.63.53h2.35v.5h-3v-.61l.61-.53c.21-.17.4-.35.58-.52A5.52,5.52,0,0,0,43.72,51.65Zm3.17,2.63a3.08,3.08,0,0,1-.68-.08,2.84,2.84,0,0,1-.56-.18V53.4h0a2.64,2.64,0,0,0,.56.26,2,2,0,0,0,.63.11,1.4,1.4,0,0,0,.41-.06.81.81,0,0,0,.34-.21.79.79,0,0,0,.2-.3,1.2,1.2,0,0,0,.06-.4.94.94,0,0,0-.07-.39.73.73,0,0,0-.22-.24.83.83,0,0,0-.37-.16,2.46,2.46,0,0,0-.49,0,3.74,3.74,0,0,0-.49,0l-.42.07V49.82h2.63v.51H46.4v1.16h.49a2.9,2.9,0,0,1,.62.06,1.51,1.51,0,0,1,.49.21,1.22,1.22,0,0,1,.36.42,1.35,1.35,0,0,1,.13.64,1.62,1.62,0,0,1-.11.58,1.43,1.43,0,0,1-.31.47,1.53,1.53,0,0,1-.5.32A2,2,0,0,1,46.89,54.28Zm3.74-2.53h-.7v-.84h.7Zm-.7,1.6h.7v.83h-.7Zm2.79.33h2.34v.5h-3v-.61l.62-.53c.2-.17.39-.35.57-.52a5,5,0,0,0,.77-.87,1.22,1.22,0,0,0,.21-.69.67.67,0,0,0-.22-.53.93.93,0,0,0-.63-.19,2.1,2.1,0,0,0-.58.09,2.21,2.21,0,0,0-.6.29h0V50a3,3,0,0,1,.55-.18,2.71,2.71,0,0,1,.68-.09,1.62,1.62,0,0,1,1,.32,1.11,1.11,0,0,1,.38.88,1.78,1.78,0,0,1-.06.47,2.17,2.17,0,0,1-.19.41,3,3,0,0,1-.27.35c-.1.12-.23.25-.37.39s-.43.41-.65.6Zm4.64-4a1.26,1.26,0,0,0-1.14.56A3.21,3.21,0,0,0,55.85,52a3.1,3.1,0,0,0,.37,1.71,1.26,1.26,0,0,0,1.14.56,1.28,1.28,0,0,0,1.14-.55,4.21,4.21,0,0,0,0-3.43A1.26,1.26,0,0,0,57.36,49.73Zm.88,3a2.08,2.08,0,0,1-.14.56.77.77,0,0,1-.28.35.89.89,0,0,1-.46.11.84.84,0,0,1-.47-.12.69.69,0,0,1-.27-.35,1.77,1.77,0,0,1-.14-.55c0-.2,0-.46,0-.76a6.18,6.18,0,0,1,0-.77,1.59,1.59,0,0,1,.13-.56.78.78,0,0,1,.29-.35.88.88,0,0,1,.45-.11.89.89,0,0,1,.46.11.79.79,0,0,1,.28.34,2,2,0,0,1,.14.56c0,.22,0,.47,0,.77S58.26,52.56,58.24,52.77Zm3.31,1h.89v.44H60.08v-.44H61V50.82h-.91v-.4l.4,0a1,1,0,0,0,.32-.09.55.55,0,0,0,.21-.19.63.63,0,0,0,.09-.3h.45Zm2-3.92h3v.66l-2,3.7h-.62L66,50.33H63.53ZM18.05,62.59h2.34v.5H17.44v-.61l.62-.53c.2-.17.4-.35.57-.52a5,5,0,0,0,.77-.87,1.22,1.22,0,0,0,.21-.69.67.67,0,0,0-.22-.53.93.93,0,0,0-.63-.19,2.1,2.1,0,0,0-.58.09,2.36,2.36,0,0,0-.6.29h0v-.62a3,3,0,0,1,.55-.18,2.77,2.77,0,0,1,.68-.09,1.57,1.57,0,0,1,1,.33,1.08,1.08,0,0,1,.38.87,1.78,1.78,0,0,1-.06.47,2.17,2.17,0,0,1-.19.41,3,3,0,0,1-.27.35c-.1.12-.23.25-.37.39s-.43.41-.65.6Zm4.64-4a1.27,1.27,0,0,0-1.14.56,3.21,3.21,0,0,0-.37,1.72,3.1,3.1,0,0,0,.37,1.71,1.26,1.26,0,0,0,1.14.56,1.28,1.28,0,0,0,1.14-.55,3.13,3.13,0,0,0,.37-1.73,3.19,3.19,0,0,0-.36-1.7A1.26,1.26,0,0,0,22.69,58.64Zm.88,3a1.77,1.77,0,0,1-.14.56.71.71,0,0,1-.28.35.89.89,0,0,1-.46.11.84.84,0,0,1-.47-.12.69.69,0,0,1-.27-.35,1.77,1.77,0,0,1-.14-.55c0-.2,0-.46,0-.76a6.18,6.18,0,0,1,0-.77,1.85,1.85,0,0,1,.13-.56.78.78,0,0,1,.29-.35.88.88,0,0,1,.45-.11.89.89,0,0,1,.46.11.79.79,0,0,1,.28.34,1.7,1.7,0,0,1,.14.56c0,.22,0,.47,0,.77S23.59,61.47,23.57,61.68Zm1.48-.76h1.82v.53H25.05Zm3.44,1.66h2.18v.51H27.91V58.73h.58Zm3.84-3.85-1.59,4.36h.59l.42-1.21h1.89l.43,1.21h.62L33.1,58.73Zm-.4,2.65.77-2.14.76,2.14Zm5.76-.77v0a1.31,1.31,0,0,0,.42-.35.92.92,0,0,0,.16-.53,1,1,0,0,0-.11-.47.86.86,0,0,0-.35-.33,1.47,1.47,0,0,0-.45-.14,4.35,4.35,0,0,0-.72,0H35.35v4.36H36.9a2.57,2.57,0,0,0,.74-.08,1.31,1.31,0,0,0,.88-.68,1.34,1.34,0,0,0,.12-.58,1.12,1.12,0,0,0-.26-.75A1.19,1.19,0,0,0,37.69,60.61Zm-1.76-1.38h.69a3.55,3.55,0,0,1,.49,0,.8.8,0,0,1,.33.09.42.42,0,0,1,.17.18.54.54,0,0,1,0,.27,1.14,1.14,0,0,1,0,.33.53.53,0,0,1-.2.22.79.79,0,0,1-.3.12,2.39,2.39,0,0,1-.43,0h-.75Zm2,2.92a.66.66,0,0,1-.24.26.9.9,0,0,1-.4.15,3.57,3.57,0,0,1-.62,0h-.77V61h.91a3.62,3.62,0,0,1,.49,0,.85.85,0,0,1,.34.09.7.7,0,0,1,.29.27,1,1,0,0,1,.08.42A.78.78,0,0,1,38,62.15Zm1.39-1.23h1.83v.53H39.35Zm4.19-2.28a1.26,1.26,0,0,0-1.14.56A3.12,3.12,0,0,0,42,60.92a3.2,3.2,0,0,0,.36,1.71,1.46,1.46,0,0,0,2.29,0,3.13,3.13,0,0,0,.37-1.73,3.19,3.19,0,0,0-.36-1.7A1.27,1.27,0,0,0,43.54,58.64Zm.88,3a2.08,2.08,0,0,1-.14.56.77.77,0,0,1-.28.35.92.92,0,0,1-.46.11.84.84,0,0,1-.47-.12.69.69,0,0,1-.27-.35,1.77,1.77,0,0,1-.14-.55c0-.2,0-.46,0-.76s0-.53,0-.77a1.82,1.82,0,0,1,.14-.56.73.73,0,0,1,.29-.35.88.88,0,0,1,.45-.11.89.89,0,0,1,.46.11.87.87,0,0,1,.28.34,2,2,0,0,1,.14.56c0,.22,0,.47,0,.77S44.44,61.47,44.42,61.68Zm3.31,1h.89v.44H46.26v-.44h.91V59.73h-.91v-.4l.4,0a.89.89,0,0,0,.31-.09.67.67,0,0,0,.22-.19.63.63,0,0,0,.09-.3h.45Zm4.8-1.34a1.16,1.16,0,0,1,.09.49,1.26,1.26,0,0,1-.11.55,1.19,1.19,0,0,1-.3.43,1.44,1.44,0,0,1-.52.31,2.21,2.21,0,0,1-.65.1,2.82,2.82,0,0,1-.71-.09,3.28,3.28,0,0,1-.58-.19V62.3h0a2.29,2.29,0,0,0,.59.27,2.16,2.16,0,0,0,.65.11,1.43,1.43,0,0,0,.39-.06.85.85,0,0,0,.34-.18.89.89,0,0,0,.2-.29,1,1,0,0,0,.07-.39.87.87,0,0,0-.08-.39.61.61,0,0,0-.21-.24.86.86,0,0,0-.32-.13,2.41,2.41,0,0,0-.4,0h-.26v-.49H51a1.22,1.22,0,0,0,.71-.18.63.63,0,0,0,.27-.55.5.5,0,0,0-.07-.27.52.52,0,0,0-.19-.2.79.79,0,0,0-.27-.1,1.51,1.51,0,0,0-.32,0,1.83,1.83,0,0,0-.59.1,2.34,2.34,0,0,0-.6.28h0v-.61a2.65,2.65,0,0,1,.55-.19,2.69,2.69,0,0,1,.67-.09,2.43,2.43,0,0,1,.57.06,1.28,1.28,0,0,1,.43.19.8.8,0,0,1,.32.34.87.87,0,0,1,.11.46.89.89,0,0,1-.25.64,1.2,1.2,0,0,1-.61.34v0a1.89,1.89,0,0,1,.32.1,1.15,1.15,0,0,1,.31.18A1.09,1.09,0,0,1,52.53,61.31ZM77.76,43l.85-.85a2.72,2.72,0,0,0,.78.6,2.15,2.15,0,0,0,.94.2,1.55,1.55,0,0,0,1-.3,1,1,0,0,0,.38-.78,1,1,0,0,0-.43-.83,1.79,1.79,0,0,0-1.11-.33,2.28,2.28,0,0,0-.63.09,4.22,4.22,0,0,0-.67.3l.31-.81a2.23,2.23,0,0,1-1-.72,1.78,1.78,0,0,1-.32-1.06,2,2,0,0,1,.72-1.58,3,3,0,0,1,1.94-.59l.64,0,.54,0a4.58,4.58,0,0,0,.53,0,3.22,3.22,0,0,0,.49-.11l.9-.26-.32,1.26-.79.05a1.6,1.6,0,0,1,.38.55,1.81,1.81,0,0,1,.12.67,1.66,1.66,0,0,1-.26.9,2.62,2.62,0,0,1-.82.75,2.59,2.59,0,0,1,.89.8,1.88,1.88,0,0,1,.29,1,1.93,1.93,0,0,1-.78,1.55,2.9,2.9,0,0,1-1.93.64,3.68,3.68,0,0,1-1.52-.3A3.08,3.08,0,0,1,77.76,43m1.49-4.48a1.08,1.08,0,0,0,.33.83,1.28,1.28,0,0,0,.89.31,1.24,1.24,0,0,0,.87-.32,1.12,1.12,0,0,0,.34-.82,1.06,1.06,0,0,0-.34-.8,1.34,1.34,0,0,0-1.74,0A1,1,0,0,0,79.25,38.47Zm5.39.86,2.48-1.53a1.05,1.05,0,0,0-.39-.27,1.36,1.36,0,0,0-.51-.09,1.51,1.51,0,0,0-1.13.46,1.62,1.62,0,0,0-.46,1.18v.15a.38.38,0,0,1,0,.1m3.93,1.93a5.11,5.11,0,0,1-1.13.55,4.06,4.06,0,0,1-1.2.18,3,3,0,0,1-1.13-.21,2.67,2.67,0,0,1-1-.61,2.84,2.84,0,0,1-.65-.93,2.91,2.91,0,0,1,0-2.22,2.63,2.63,0,0,1,.65-.92,2.66,2.66,0,0,1,.93-.62,3.23,3.23,0,0,1,1.15-.2,2.87,2.87,0,0,1,1.54.42,3.26,3.26,0,0,1,1.13,1.22l-3.82,2.37a1.71,1.71,0,0,0,1.22.45,2.33,2.33,0,0,0,.78-.15,4.6,4.6,0,0,0,.93-.48Zm.11-2.13A3,3,0,0,1,88.9,38a2.91,2.91,0,0,1,.65-.92,2.81,2.81,0,0,1,1-.61,3.06,3.06,0,0,1,1.13-.21,3.12,3.12,0,0,1,1.14.21,2.83,2.83,0,0,1,1,.62,2.75,2.75,0,0,1,.86,2,2.75,2.75,0,0,1-.86,2,2.67,2.67,0,0,1-1,.61,3.17,3.17,0,0,1-1.15.21,3,3,0,0,1-1.13-.21,2.76,2.76,0,0,1-1-.61,2.8,2.8,0,0,1-.87-2m1.4,0a1.57,1.57,0,0,0,.45,1.15,1.55,1.55,0,0,0,2.21,0,1.67,1.67,0,0,0,0-2.28,1.49,1.49,0,0,0-1.12-.46,1.5,1.5,0,0,0-1.11.46A1.54,1.54,0,0,0,90.08,39.13Zm12.72,2.74V38.81a1.59,1.59,0,0,1,.25-1,.9.9,0,0,1,.76-.34.64.64,0,0,1,.58.27,1.92,1.92,0,0,1,.17,1V42l1.37-.09V38.3a2.3,2.3,0,0,0-.43-1.51,1.51,1.51,0,0,0-1.24-.52,1.81,1.81,0,0,0-.87.21,2.1,2.1,0,0,0-.7.64v-.8l-1.26.09V42Zm3.35-.72a3.1,3.1,0,0,0,1,.66,2.94,2.94,0,0,0,1.15.22,2.33,2.33,0,0,0,1.57-.5,1.64,1.64,0,0,0,.59-1.31,1.39,1.39,0,0,0-.35-1,2.67,2.67,0,0,0-1.18-.62,3.66,3.66,0,0,1-.93-.36.47.47,0,0,1,0-.75.75.75,0,0,1,.47-.14,1.14,1.14,0,0,1,.51.13,2,2,0,0,1,.5.41l.92-.74a3.07,3.07,0,0,0-.94-.68,2.43,2.43,0,0,0-1-.22,2.21,2.21,0,0,0-1.46.47,1.54,1.54,0,0,0-.57,1.24,1.4,1.4,0,0,0,.36,1,2.62,2.62,0,0,0,1.15.66l.42.13c.48.14.73.33.73.56a.48.48,0,0,1-.21.41,1.06,1.06,0,0,1-.58.14,1.35,1.35,0,0,1-.63-.14,1.72,1.72,0,0,1-.57-.43l-.84.86m7.76.84v-.56a1.63,1.63,0,0,1-.62.42,2.29,2.29,0,0,1-.81.14,2,2,0,0,1-1.43-.54,1.85,1.85,0,0,1-.56-1.38,1.76,1.76,0,0,1,.56-1.36,2.09,2.09,0,0,1,1.47-.51,2.26,2.26,0,0,1,.71.1,1.91,1.91,0,0,1,.59.29v-.46a.57.57,0,0,0-.27-.52,1.5,1.5,0,0,0-.82-.17,3.93,3.93,0,0,0-.86.08,2.65,2.65,0,0,0-.72.24l.31-1.32c.3-.06.58-.11.83-.14a6.2,6.2,0,0,1,.71,0,2.43,2.43,0,0,1,1.6.43,1.72,1.72,0,0,1,.51,1.38v3.8Zm-2-2a.7.7,0,0,0,.26.59,1.13,1.13,0,0,0,.73.21,1.09,1.09,0,0,0,.71-.21.66.66,0,0,0,.26-.57.72.72,0,0,0-.25-.59,1.06,1.06,0,0,0-.71-.22,1.16,1.16,0,0,0-.74.21A.68.68,0,0,0,111.86,40Zm8.89-3.48-1.36-.23-1.26,2.78a2.62,2.62,0,0,0-.1.3c0,.12-.08.25-.12.4,0,0,0,0,0-.06a3.6,3.6,0,0,0-.21-.6l-1.46-2.82-1.44.23,2.41,4.54L116,43.63l1.43.21Zm-.55,2.58a2.78,2.78,0,0,1,.22-1.11,2.63,2.63,0,0,1,.65-.92,2.77,2.77,0,0,1,.94-.61,3.12,3.12,0,0,1,1.14-.21,3.2,3.2,0,0,1,1.14.21,2.88,2.88,0,0,1,1,.62,2.55,2.55,0,0,1,.64.92,2.7,2.7,0,0,1,.22,1.1,2.8,2.8,0,0,1-.22,1.12,2.64,2.64,0,0,1-.64.92,2.72,2.72,0,0,1-1,.61,3.21,3.21,0,0,1-1.15.21,3,3,0,0,1-1.14-.21,2.84,2.84,0,0,1-1.81-2.65m1.39,0a1.57,1.57,0,0,0,.45,1.15,1.56,1.56,0,0,0,2.22,0,1.62,1.62,0,0,0,.46-1.14,1.54,1.54,0,0,0-.45-1.14,1.49,1.49,0,0,0-1.12-.46A1.52,1.52,0,0,0,122,38,1.54,1.54,0,0,0,121.59,39.13Zm4.48,2a3.1,3.1,0,0,0,1,.66,2.94,2.94,0,0,0,1.15.22,2.31,2.31,0,0,0,1.57-.5,1.64,1.64,0,0,0,.59-1.31,1.39,1.39,0,0,0-.35-1,2.69,2.69,0,0,0-1.17-.62,4,4,0,0,1-.94-.36.47.47,0,0,1-.2-.38.43.43,0,0,1,.17-.37.7.7,0,0,1,.46-.14,1.21,1.21,0,0,1,.52.13,2.17,2.17,0,0,1,.49.41l.92-.74a3.07,3.07,0,0,0-.94-.68,2.43,2.43,0,0,0-1-.22,2.21,2.21,0,0,0-1.46.47,1.53,1.53,0,0,0-.56,1.24,1.4,1.4,0,0,0,.35,1,2.68,2.68,0,0,0,1.15.66l.42.13c.49.14.73.33.73.56a.48.48,0,0,1-.21.41,1,1,0,0,1-.57.14,1.39,1.39,0,0,1-.64-.14,1.72,1.72,0,0,1-.57-.43l-.84.86m-29-1.82L99.6,37.8a1.05,1.05,0,0,0-.39-.27,1.46,1.46,0,0,0-.52-.09,1.51,1.51,0,0,0-1.13.46,1.66,1.66,0,0,0-.46,1.18c0,.07,0,.12,0,.15v.1m3.94,1.93a5.4,5.4,0,0,1-1.14.55,4,4,0,0,1-1.2.18,3,3,0,0,1-1.13-.21,2.76,2.76,0,0,1-1-.61,2.67,2.67,0,0,1-.64-.93,2.76,2.76,0,0,1-.23-1.11A2.93,2.93,0,0,1,96,38a3,3,0,0,1,1.59-1.54,3.17,3.17,0,0,1,1.14-.2,2.91,2.91,0,0,1,1.55.42,3.32,3.32,0,0,1,1.12,1.22l-3.81,2.37a1.64,1.64,0,0,0,.55.34,1.76,1.76,0,0,0,.66.11,2.24,2.24,0,0,0,.78-.15,4.93,4.93,0,0,0,.94-.48Zm17.79-36a1.79,1.79,0,0,0-2.41-.54l-.06,0L109,9.69a1.77,1.77,0,0,0-.5,2.46h0a1.78,1.78,0,0,0,2.47.49l5.85-3.89A14.21,14.21,0,0,1,112,26.89h0l0,0a14.22,14.22,0,0,1-19.67-4v0A14.2,14.2,0,0,1,96.16,3.27h0a1.78,1.78,0,0,0-2-3,17.76,17.76,0,1,0,24.63,4.94Zm-13.31,8.85a1.77,1.77,0,0,0-2.34-.56l-.12.07-7.43,5A1.78,1.78,0,0,0,95.15,21h0a1.78,1.78,0,0,0,2.46.49L105,16.56l.11-.09A1.77,1.77,0,0,0,105.53,14.09Z" style="fill:#1d1d1b"/></g></g></svg>