<svg xmlns="http://www.w3.org/2000/svg" viewBox="0 0 137.04 240.96">
    <g id="b9b14b9c-a40a-44e4-96b2-e317958091be" data-name="Capa 2">
        <g id="a7957eb4-8dd5-4981-ac54-fd50d96ca387" data-name="Capa 1">
            <path d="M137,13.26l-.25,156.3a13.26,13.26,0,0,1-13.25,13.26H13.26A13.26,13.26,0,0,1,0,169.56L.25,13.26A13.26,13.26,0,0,1,13.5,0H123.78A13.26,13.26,0,0,1,137,13.26" fill="#63b66e"/>
            <path d="M40.84,135.46a9.78,9.78,0,0,1-10,9.59,9.6,9.6,0,1,1,0-19.18,9.78,9.78,0,0,1,10,9.59m-3.89,0a6.09,6.09,0,1,0-6.1,6,6.08,6.08,0,0,0,6.1-6m25.44-9.41v11.83L51.2,126.05H49.34v18.79h3.81V133l11.22,11.83h1.86V126.05Zm25.53,15H79.53l-1.68,3.81h-4l9-18.78h1.89l9,18.78h-4Zm-7-3.17h5.68l-2.85-6.21ZM114,139a6,6,0,1,1,0-7l3-2.5a10.08,10.08,0,0,0-7.75-3.6,9.61,9.61,0,1,0,0,19.21,10.05,10.05,0,0,0,7.75-3.57l-3-2.5M26.36,91.37a48.21,48.21,0,0,0,90.35-19.06c.11-1.24.17-2.48.18-3.67A31.82,31.82,0,0,0,70.8,40.47a34.09,34.09,0,1,1-44.44,50.9M68.63,19.93A48.32,48.32,0,0,0,20.37,68.2v.35c0,1.23.07,2.52.18,3.84A31.67,31.67,0,0,0,66,97.34a34.23,34.23,0,1,1,46.56-48.79c.06.07.17,0,.13-.07A48.31,48.31,0,0,0,68.63,19.93M27.69,160.84H23.33l-.87,2H20.37L25,153.05h1l4.67,9.77H28.58ZM24,159.19H27L25.51,156Zm14.79.58a3.12,3.12,0,1,1,0-3.65l1.54-1.31a5.28,5.28,0,0,0-4-1.87,5,5,0,1,0,0,10,5.24,5.24,0,0,0,4-1.86l-1.54-1.3m7.54.53H44.18v2.51h-2v-9.76h4.31c2.85,0,3.82,1.69,3.82,3.51a3.29,3.29,0,0,1-2,3.34l2.27,2.91H48.25Zm-2.19-1.62h1.74c1.58,0,2.33-.8,2.33-2a1.83,1.83,0,0,0-2.06-2h-2Zm10,2.42v-2.19h4.42v-1.66H54.21v-2.48h5.28v-1.71H52.28v9.76h7.5V161.1Zm11.69,1.72H61.72v-9.76h3.86a4.9,4.9,0,0,1,4.92,4.88,4.79,4.79,0,0,1-4.6,4.88M65.73,161a3,3,0,0,0,2.81-3.07,3,3,0,0,0-3-3.07H63.64V161Zm8.79-7.95h-2v9.76h2Zm10.08,0H76.38v1.71h3.11v8h2v-8H84.6Zm7,7.78H87.27l-.87,2H84.31L89,153.05h1l4.66,9.77H92.52ZM88,159.19h3L89.45,156Zm12.34,3.63H96.14v-9.76H100a4.9,4.9,0,0,1,4.92,4.88,4.79,4.79,0,0,1-4.6,4.88m-.17-1.81a3,3,0,0,0,2.82-3.07,3,3,0,0,0-3-3.07H98.06V161Zm16.74-3.07a5.2,5.2,0,1,1-5.2-5,5.09,5.09,0,0,1,5.2,5m-2,0a3.17,3.17,0,0,0-6.33,0,3.17,3.17,0,0,0,6.33,0" fill="#fff"/>
            <path d="M2.25,218.8V207.36H3.81V218.8Zm3.13-.52L6,216.84a4.26,4.26,0,0,0,1.09.54,3.92,3.92,0,0,0,1.17.21,2.13,2.13,0,0,0,1.47-.5,1.63,1.63,0,0,0,.55-1.27,2,2,0,0,0-.31-1.08,3.71,3.71,0,0,0-1.55-1.08l-.92-.43a3.67,3.67,0,0,1-1.64-1.3,3.35,3.35,0,0,1-.46-1.8A2.79,2.79,0,0,1,6.26,208a3.28,3.28,0,0,1,2.32-.84,4.27,4.27,0,0,1,2.65.62l-.47,1.36a3.4,3.4,0,0,0-.95-.44,3.83,3.83,0,0,0-1.19-.21,1.69,1.69,0,0,0-1.25.45,1.55,1.55,0,0,0-.46,1.17,1.86,1.86,0,0,0,.17.79,1.69,1.69,0,0,0,.45.6,6.52,6.52,0,0,0,1.2.68l.94.45A3.7,3.7,0,0,1,11.31,214a3.67,3.67,0,0,1,.48,2,2.8,2.8,0,0,1-1,2.19A4.07,4.07,0,0,1,8,219,4.59,4.59,0,0,1,5.38,218.28Zm7.14-5.3a6.78,6.78,0,0,1,1.24-4.16,4,4,0,0,1,3.37-1.67,4.49,4.49,0,0,1,3.65,1.54A6.55,6.55,0,0,1,22.05,213a6.92,6.92,0,0,1-1.28,4.42,4.38,4.38,0,0,1-3.64,1.6,4,4,0,0,1-3.39-1.69A7.18,7.18,0,0,1,12.52,213Zm1.64,0a6.38,6.38,0,0,0,.78,3.29,2.41,2.41,0,0,0,2.19,1.32,2.79,2.79,0,0,0,2.44-1.21,5.91,5.91,0,0,0,.84-3.4c0-2.95-1.1-4.42-3.28-4.42a2.46,2.46,0,0,0-2.21,1.19A5.92,5.92,0,0,0,14.16,213Zm10.72,5.82H23.62l4.15-11.49H29Zm6.57,0V207.36H33V218.8Zm5.22-10v3.18h3.78v1.33H36.67v4.12h5.19v1.41H35.11V207.36h6.83v1.4Zm13.78-1-.52,1.33a4.09,4.09,0,0,0-2.36-.54,2.82,2.82,0,0,0-2.42,1.29,5.69,5.69,0,0,0-.91,3.35,5.08,5.08,0,0,0,.93,3.17,3.13,3.13,0,0,0,4.89.07l.86,1.19a4.72,4.72,0,0,1-3.5,1.36,4.27,4.27,0,0,1-3.53-1.62,6.65,6.65,0,0,1-1.29-4.27A6.52,6.52,0,0,1,44,208.86a4.36,4.36,0,0,1,3.55-1.7A5.81,5.81,0,0,1,50.45,207.78Zm8.75,11V210l-2.33,1.45V210a11.53,11.53,0,0,0,1.88-1.23,8.47,8.47,0,0,0,1.54-1.48h.47V218.8Zm7.32,0H64.78a47.69,47.69,0,0,1,2-4.85c.91-2,1.74-3.73,2.5-5.16h-5.4v-1.48h7.42v.61l-1,2c-.34.67-.69,1.41-1.06,2.21s-.73,1.62-1.09,2.46-.66,1.6-.92,2.32S66.68,218.24,66.52,218.8Zm5-6.07a7.28,7.28,0,0,1,1-4,3.15,3.15,0,0,1,2.81-1.56,3.08,3.08,0,0,1,2.7,1.3q.9,1.29.9,4.53a8.6,8.6,0,0,1-1,4.38,3,3,0,0,1-2.76,1.6,3.18,3.18,0,0,1-2.76-1.29C71.85,216.81,71.54,215.16,71.54,212.73Zm1.56.14c0,3.17.67,4.76,2,4.76a1.79,1.79,0,0,0,1.71-1.06,8.8,8.8,0,0,0,.55-3.69,12.25,12.25,0,0,0-.21-2.67,2.56,2.56,0,0,0-.68-1.29,1.7,1.7,0,0,0-1.19-.44C73.83,208.48,73.1,209.94,73.1,212.87Zm6.34,5.93v-.31L83,213a5.72,5.72,0,0,0,1.13-2.93c0-1.06-.6-1.59-1.79-1.59a2.3,2.3,0,0,0-1.19.33,2,2,0,0,0-.8.84l-1-.83a2.22,2.22,0,0,1,1-1.21,3.61,3.61,0,0,1,1.88-.46,4,4,0,0,1,2.58.76,2.64,2.64,0,0,1,.93,2.16,6.52,6.52,0,0,1-1.24,3.25L82,217.39h4.49v1.41Zm9.13-5.58-.53-.37v-5.54h5.7v1.33H89.53v2.78A2.35,2.35,0,0,1,91,211a3.08,3.08,0,0,1,2.43.95,4,4,0,0,1,.84,2.71q0,4.31-3.84,4.31a4,4,0,0,1-2.65-.89l.6-1.31a3.28,3.28,0,0,0,2,.87c1.47,0,2.21-.92,2.21-2.75s-.73-2.56-2.17-2.56A2.53,2.53,0,0,0,88.57,213.22Zm8.82-2.94a1.16,1.16,0,1,1-.83.34A1.13,1.13,0,0,1,97.39,210.28Zm0,6.33a1.16,1.16,0,1,1-.83.34A1.13,1.13,0,0,1,97.39,216.61Zm3.12,2.19v-.31l3.58-5.49a5.72,5.72,0,0,0,1.13-2.93c0-1.06-.6-1.59-1.79-1.59a2.3,2.3,0,0,0-1.19.33,2,2,0,0,0-.8.84l-1-.83a2.26,2.26,0,0,1,1-1.21,3.61,3.61,0,0,1,1.88-.46,4,4,0,0,1,2.58.76,2.64,2.64,0,0,1,.93,2.16,6.59,6.59,0,0,1-1.23,3.25l-2.57,4.07h4.48v1.41Zm7.82-6.07a7.37,7.37,0,0,1,1-4,3.17,3.17,0,0,1,2.82-1.56,3.08,3.08,0,0,1,2.69,1.3c.61.86.91,2.37.91,4.53a8.6,8.6,0,0,1-1,4.38A3,3,0,0,1,112,219a3.21,3.21,0,0,1-2.77-1.29C108.65,216.81,108.33,215.16,108.33,212.73Zm1.57.14c0,3.17.67,4.76,2,4.76a1.81,1.81,0,0,0,1.71-1.06,8.83,8.83,0,0,0,.54-3.69,12.25,12.25,0,0,0-.21-2.67,2.48,2.48,0,0,0-.68-1.29,1.67,1.67,0,0,0-1.18-.44C110.63,208.48,109.9,209.94,109.9,212.87Zm9.69,5.93V210l-2.33,1.45V210a12,12,0,0,0,1.88-1.23,9.19,9.19,0,0,0,1.54-1.48h.47V218.8Zm7.31,0h-1.73a45,45,0,0,1,1.94-4.85c.91-2,1.75-3.73,2.5-5.16h-5.4v-1.48h7.43v.61l-1,2c-.34.67-.69,1.41-1.06,2.21s-.74,1.62-1.09,2.46-.66,1.6-.93,2.32S127.07,218.24,126.9,218.8Zm-95.61,22v-.31L34.87,235A5.72,5.72,0,0,0,36,232.07c0-1.06-.6-1.59-1.79-1.59a2.3,2.3,0,0,0-1.19.33,2,2,0,0,0-.8.84l-1-.83a2.22,2.22,0,0,1,1-1.21,3.61,3.61,0,0,1,1.88-.46,4,4,0,0,1,2.58.76,2.64,2.64,0,0,1,.93,2.16,6.52,6.52,0,0,1-1.24,3.25l-2.57,4.07h4.49v1.41Zm7.82-6.07a7.28,7.28,0,0,1,1-4,3.16,3.16,0,0,1,2.81-1.56,3.08,3.08,0,0,1,2.7,1.3q.9,1.29.9,4.53a8.61,8.61,0,0,1-.94,4.38,3,3,0,0,1-2.77,1.6,3.21,3.21,0,0,1-2.76-1.29C39.42,238.81,39.11,237.16,39.11,234.73Zm1.56.14q0,4.75,2,4.76a1.81,1.81,0,0,0,1.72-1.06,8.83,8.83,0,0,0,.54-3.69,12.25,12.25,0,0,0-.21-2.67,2.56,2.56,0,0,0-.68-1.29,1.68,1.68,0,0,0-1.19-.44Q40.67,230.48,40.67,234.87Zm7,2v-1.37h3.34v1.37Zm5.27,4V229.36h1.56v10h5.18v1.41Zm14.08,0-.79-2.41H62l-.84,2.41H59.43l4.64-11.6h.42l4.31,11.6Zm-2.86-8.6-1.78,5h3.4Zm8.53,8.6H69.47V229.36c1.4-.07,2.4-.11,3-.11a4.22,4.22,0,0,1,2.63.73,2.51,2.51,0,0,1,.93,2.09,2.11,2.11,0,0,1-.6,1.46,2.49,2.49,0,0,1-1.31.82,3.55,3.55,0,0,1,2,1.08,3.16,3.16,0,0,1,.62,2.07,3,3,0,0,1-1.1,2.4A4.44,4.44,0,0,1,72.74,240.8ZM71,230.61v3.28a10.59,10.59,0,0,0,1.22.05c1.48,0,2.21-.6,2.21-1.8s-.68-1.59-2-1.59C71.92,230.55,71.45,230.57,71,230.61Zm0,4.5v4.36c.53.05.95.08,1.23.08a3.38,3.38,0,0,0,2.15-.55,2.13,2.13,0,0,0,.67-1.75,2,2,0,0,0-.64-1.65,3.39,3.39,0,0,0-2.16-.53Zm7,1.74v-1.37h3.35v1.37Zm4.61-2.12a7.28,7.28,0,0,1,1-4,3.15,3.15,0,0,1,2.81-1.56,3.08,3.08,0,0,1,2.7,1.3q.9,1.29.9,4.53a8.61,8.61,0,0,1-.94,4.38,3,3,0,0,1-2.77,1.6,3.21,3.21,0,0,1-2.76-1.29C83,238.81,82.68,237.16,82.68,234.73Zm1.56.14q0,4.75,2,4.76A1.79,1.79,0,0,0,88,238.57a8.64,8.64,0,0,0,.55-3.69,12.25,12.25,0,0,0-.21-2.67,2.56,2.56,0,0,0-.68-1.29,1.68,1.68,0,0,0-1.19-.44Q84.25,230.48,84.24,234.87Zm9.69,5.93V232l-2.33,1.45V232a11.53,11.53,0,0,0,1.88-1.23A8.81,8.81,0,0,0,95,229.31h.47V240.8Zm4.82-.81.75-1.2a2.51,2.51,0,0,0,1.94.84,1.9,1.9,0,0,0,2.17-2.13,2.08,2.08,0,0,0-.63-1.57,2.34,2.34,0,0,0-1.68-.61h-.12v-1.26h.07c1.32,0,2-.58,2-1.75a1.63,1.63,0,0,0-1.87-1.83,2.06,2.06,0,0,0-1.61.68l-.7-1.06a2.88,2.88,0,0,1,2.43-.95,3.7,3.7,0,0,1,2.45.8,2.57,2.57,0,0,1,.94,2.05,2.76,2.76,0,0,1-.53,1.69,2.62,2.62,0,0,1-1.23,1,3.07,3.07,0,0,1,1.56,1.09,3,3,0,0,1,.58,1.86,3.08,3.08,0,0,1-1,2.46,4.22,4.22,0,0,1-2.83.87,4.12,4.12,0,0,1-1.5-.29A3.8,3.8,0,0,1,98.75,240Z"/>
        </g>
    </g>
</svg>