
<svg version="1.1" id="Capa_1" xmlns="http://www.w3.org/2000/svg" xmlns:xlink="http://www.w3.org/1999/xlink" x="0px" y="0px"
	 viewBox="0 0 24 24" style="enable-background:new 0 0 24 24;" xml:space="preserve">
	<path d="M16,22.6l-3.5-6.8c0,0-2,1-2.1,1c-2.2,1.1-6.8-7.8-4.6-9l2.1-1L4.4,0L2.3,1C0.7,1.9,0,3.7,0,6C0.1,12.9,6.8,24,12.3,24
	c0.5,0,1.1-0.1,1.6-0.3C14,23.6,16,22.6,16,22.6z M13.5,9c0.8,0,1.5,0.7,1.5,1.5S14.3,12,13.5,12S12,11.3,12,10.5S12.7,9,13.5,9z
	 M22.5,9c0.8,0,1.5,0.7,1.5,1.5S23.3,12,22.5,12S21,11.3,21,10.5S21.7,9,22.5,9z M18,9c0.8,0,1.5,0.7,1.5,1.5S18.8,12,18,12
	s-1.5-0.7-1.5-1.5S17.2,9,18,9z"/>
</svg>
