<?xml version="1.0" encoding="utf-8"?>
<!-- Generator: Adobe Illustrator 21.0.0, SVG Export Plug-In . SVG Version: 6.00 Build 0)  -->
<svg version="1.1" id="Capa_1" xmlns="http://www.w3.org/2000/svg" xmlns:xlink="http://www.w3.org/1999/xlink" x="0px" y="0px"
	 viewBox="0 0 512 512" style="enable-background:new 0 0 512 512;" xml:space="preserve">
<path style="fill-rule:evenodd;clip-rule:evenodd;fill:#606062;" d="M464,91.7c-7.5-11.2-22.4-14.4-33.8-7.5
	c-0.3,0.2-0.6,0.3-0.9,0.5l-104.6,69.6c-11.5,7.6-14.6,23.2-7,34.7l0,0c7.6,11.5,23.2,14.6,34.7,7l82.4-54.9
	c44.4,88.9,16.8,198.9-67.9,255.5c-0.1,0.1-0.2,0.1-0.3,0.2c-0.1,0.1-0.2,0.1-0.3,0.2c-91.8,60.9-215.7,36.1-276.9-55.5
	c-0.1-0.1-0.1-0.2-0.2-0.3c-0.1-0.1-0.1-0.2-0.2-0.3C28.2,249.1,53,125.3,144.6,64c0.1-0.1,0.2-0.1,0.3-0.2
	c11.5-7.7,14.6-23.2,7-34.7c-7.7-11.5-23.2-14.6-34.7-7C2.2,98.8-28.9,254,47.7,369c76.6,115,231.8,146.1,346.8,69.5
	C509.4,361.9,540.5,206.7,464,91.7z"/>
<path style="fill-rule:evenodd;clip-rule:evenodd;fill:#F58634;" d="M276.6,216.5c-7.3-10.9-21.7-14.3-33-8c-0.6,0.3-1.1,0.6-1.7,1
	l-104.6,69.6c-11.5,7.6-14.6,23.2-7,34.7v0c7.6,11.5,23.2,14.6,34.7,7l104.6-69.6c0.6-0.4,1.1-0.8,1.6-1.2
	C281.4,242,283.9,227.4,276.6,216.5z"/>
</svg>
