<?xml version="1.0" encoding="utf-8"?>
<!-- Generator: Adobe Illustrator 21.0.0, SVG Export Plug-In . SVG Version: 6.00 Build 0)  -->
<svg version="1.1" id="Capa_1" xmlns="http://www.w3.org/2000/svg" xmlns:xlink="http://www.w3.org/1999/xlink" x="0px" y="0px"
	 viewBox="0 0 275.9 202.6" style="enable-background:new 0 0 275.9 202.6;" xml:space="preserve">
<style type="text/css">
	.st0{fill:#606062;}
</style>
<title>Apiques</title>
<g id="Capa_2">
	<g id="Capa_1-2">
		<path class="st0" d="M136.6,162.4c6.7-4,13.2-7.4,19.2-11.6c4.1-2.9,8.1-3.1,12.6-2.1c4.9,1,9.8,1.7,14.7,2.7
			c9.2,1.8,17.6-2.1,26.4-3.4c7-1,14-2.9,21-4.1c1.7-0.2,3.3,0.4,4.5,1.6c13.5,18.6,26.8,37.3,40.9,57.1h-6.5c-7,0-14-0.1-21,0.1
			c-2.8,0.1-4.1-0.8-5.1-3.5c-2.5-6.9-5.5-13.5-8-20.4c-1-2.6-2.3-3.9-5.1-3.4c-0.5,0.1-1-0.1-1.5,0c-7.1,1.1-13.1-0.8-17.2-7
			c-2-3-4.2-2.6-7.2-1.5c-13.8,5.2-27.8,10-41.5,15.3c-5.3,2-11,2.6-16.6,1.9c-12.8-1.3-25.5-2.6-38.2-3.6c-2.8-0.2-5.6,0.2-8.2,1.2
			c-14.7,5.7-29.5,11.2-43.8,17.8c-5.8,2.7-11.4,3.2-17.5,3.2c-12.3-0.1-24.6,0-38.5,0l90.2-77.3L136.6,162.4z"/>
		<path class="st0" d="M75.1,201.6c9.2-3.7,18.4-7.5,27.6-11.1c1.7-0.5,3.5-0.7,5.3-0.4c15.2,1.3,30.5,2.8,45.7,4.1
			c2.2,0.1,4.3-0.3,6.3-1.1c14-5,28-10.1,42-15.4c3-1.1,5.2-1.4,7.2,1.6c3.4,5.1,8.3,6.7,14.2,5.7c3.1-0.5,4.8,0.8,5.8,3.9
			c1.4,4.4,3.4,8.6,5.3,13.4H75.1L75.1,201.6z"/>
		<path class="st0" d="M137.4,151c-4.6-3.7-9.3-7.2-13.7-11c-1.1-0.9-1.7-2.3-1.7-3.7c0.7-3.7,1-7.9,3-10.8
			c5.9-8.6,12.5-16.7,19-25.2l6.9,5.4c-3.4,11-2.4,16.3,3.7,20.7c5.8,4.1,11.2,3.4,19.4-2.5l7,5.4c-0.6,0.7-1.2,1.4-1.7,2.2
			c-3.5,6.6-8.2,9.6-16,6.9c-2.1-0.7-5.2,0.4-7.4,1.5C149.7,143.5,143.6,147.3,137.4,151z"/>
		<path class="st0" d="M231.3,19.8l7.1,5.8L211,60.7l-42.1,53.8c-0.1,0.1-0.2,0.3-0.3,0.4c-2.3,2.8-4.6,6.7-8.8,3.6s-1-6.4,1.3-9.3
			c22.8-29.2,45.7-58.4,68.6-87.6C230,21.1,230.5,20.7,231.3,19.8z"/>
		<path class="st0" d="M256.4,15.6l-7.5,6c-4.8-3.7-9.6-7.3-14.1-11.2c-0.9-0.8-1.2-3-0.9-4.5c0.3-1.9,1.5-3.6,2.6-6L256.4,15.6z"/>
		<path class="st0" d="M57.6,91.1l3.6,8.6l-8.5,3.8L49,94.9L57.6,91.1z"/>
		<path class="st0" d="M88.8,91.3l8.9,3l-2.9,8.8l-8.9-2.9L88.8,91.3z"/>
		<path class="st0" d="M62,69.2l-9,2.2l-2.2-9l9-2.3L62,69.2z"/>
		<path class="st0" d="M80.4,62.3l-1.7,8.6c-9.8-0.2-10-0.5-7-10.6L80.4,62.3z"/>
		<path class="st0" d="M94.3,79l-8.3-4.5l4.6-8.2l8.1,4.6L94.3,79z"/>
		<path class="st0" d="M40.3,66.9l5.6,7.5L38.4,80l-5.5-7.5L40.3,66.9z"/>
		<path class="st0" d="M128.8,85.5l-4.7-8.1l8.1-4.7l4.7,8.1L128.8,85.5z"/>
		<path class="st0" d="M102.3,106.5l5.1-7.8l8,5.1l-5.2,7.8L102.3,106.5z"/>
		<path class="st0" d="M106,58.6L98.3,53l5.4-7.5l7.6,5.4L106,58.6z"/>
		<path class="st0" d="M33.4,108.4l6.3-6.8l6.8,6.3l-6.4,6.9L33.4,108.4z"/>
		<path class="st0" d="M107,89.9l-5.5-5.8l6.6-6.7l5.1,6L107,89.9z"/>
		<path class="st0" d="M118.2,69.8l-5.4-4.8l6.1-6.8l6.4,6.3L118.2,69.8z"/>
		<path class="st0" d="M77.8,89.7v8.6h-8.7v-8.6H77.8z"/>
	</g>
</g>
</svg>
