<?xml version="1.0" encoding="utf-8"?>
<!-- Generator: Adobe Illustrator 21.0.0, SVG Export Plug-In . SVG Version: 6.00 Build 0)  -->
<svg version="1.1" id="Capa_1" xmlns="http://www.w3.org/2000/svg" xmlns:xlink="http://www.w3.org/1999/xlink" x="0px" y="0px"
	 viewBox="0 0 1000 1000" style="enable-background:new 0 0 1000 1000;" xml:space="preserve">
<style type="text/css">
	.st0{fill:#606062;}
</style>
<g>
	<path class="st0" d="M655,624.6C590.2,723,539.3,877.3,539.3,877.3l-6.9-130h11.3l16.8-84.6h-121l16.8,84.6h11.3l-6.9,130
		c0,0-50.9-154.3-115.7-252.6C63,660.2,10,810.1,10,989.7h980C990,810.1,937,660.2,655,624.6z"/>
	<path class="st0" d="M305.4,564.5c52,52,121.1,80.6,194.6,80.6s142.6-28.6,194.6-80.6c52-52,80.6-121,80.6-194.5h66.7v-70.8h-53
		c0-90-41.2-170.4-105.7-223.4l-35.4,168.5l-42.7-9l39.2-186.4C601.8,24.4,552.5,10.3,500,10.3c-53.9,0-104.3,14.8-147.5,40.5
		l38.8,184.5l-42.7,9L313.7,78.5c-62.7,53-102.6,132.2-102.6,220.7H158V370h66.8C224.8,443.5,253.4,512.5,305.4,564.5z M715.1,370
		C715,488.6,618.6,585,500,585s-215-96.4-215.1-215H715.1z"/>
</g>
</svg>
