<?xml version="1.0" encoding="utf-8"?>
<!-- Generator: Adobe Illustrator 21.0.0, SVG Export Plug-In . SVG Version: 6.00 Build 0)  -->
<svg version="1.1" id="Capa_1" xmlns="http://www.w3.org/2000/svg" xmlns:xlink="http://www.w3.org/1999/xlink" x="0px" y="0px"
	 viewBox="0 0 300 300" style="enable-background:new 0 0 300 300;" xml:space="preserve">
<style type="text/css">
	.st0{fill:#F58634;}
</style>
<path class="st0" d="M32.9,126.6c-0.1-0.6-0.1-1.2-0.1-1.8c0-8.5,5.7-16,14.1-18.8c1.7-0.6,3-2.1,3.2-3.9
	C51.2,92,60.2,84.4,70.9,84.4c1.3,0,2.5,0.1,3.8,0.3c2.6,0.4,5-1.3,5.4-3.8c0,0,0,0,0-0.1c1.5-9.7,10.4-16.9,20.8-16.9
	c0.9,0,1.8,0.1,2.7,0.2c1.9,0.2,3.7-0.7,4.6-2.3c6.3-10.1,19.5-13.2,29.7-7c2.8,1.8,5.2,4.1,7,7c0.9,1.6,2.8,2.5,4.6,2.3
	c0.9-0.1,1.8-0.2,2.7-0.2c10.3,0,19.2,7.3,20.8,16.9c0.4,2.6,2.8,4.3,5.4,3.9c0,0,0,0,0.1,0c1.2-0.2,2.5-0.3,3.8-0.3
	c10.7,0,19.7,7.6,20.9,17.7c0.2,1.8,1.5,3.3,3.2,3.9c8.4,2.8,14.1,10.3,14.1,18.8c0,0.6,0,1.2-0.1,1.8H32.9z M201,244.8
	c3.2,4.1,9,4.8,13.1,1.6c1.9-1.4,3.1-3.5,3.5-5.8l6.3-38l-48.8,8.9L201,244.8z M51.6,225c0-12.9,10.5-23.4,23.4-23.4
	s23.4,10.5,23.4,23.4S87.9,248.4,75,248.4C62.1,248.4,51.6,237.9,51.6,225z M60.9,225c0,7.8,6.3,14.1,14.1,14.1s14.1-6.3,14.1-14.1
	s-6.3-14.1-14.1-14.1C67.2,210.9,60.9,217.2,60.9,225z M75,192.2c14.1,0,26.6,9,31.1,22.4l119.6-21.7l7.6-38.1h-201l28.1,40.9
	C65,193.3,70,192.2,75,192.2z M253.1,140.6c0-2.6-2.1-4.7-4.7-4.7h-225c-2.6,0-4.7,2.1-4.7,4.7s2.1,4.7,4.7,4.7h225
	C251,145.3,253.1,143.2,253.1,140.6z M75,229.7c2.6,0,4.7-2.1,4.7-4.7s-2.1-4.7-4.7-4.7c-2.6,0-4.7,2.1-4.7,4.7
	C70.3,227.6,72.4,229.7,75,229.7z M271.9,253.1c0-2.6-2.1-4.7-4.7-4.7H14.1c-2.6,0-4.7,2.1-4.7,4.7s2.1,4.7,4.7,4.7h253.1
	C269.8,257.8,271.9,255.7,271.9,253.1z M271.9,79.7h-28.5l-3.9,46.9h9.4l3.1-37.5h19.9c2.6,0,4.7-2.1,4.7-4.7S274.5,79.7,271.9,79.7
	z"/>
</svg>
