<?xml version="1.0" encoding="utf-8"?>
<!-- Generator: Adobe Illustrator 21.0.0, SVG Export Plug-In . SVG Version: 6.00 Build 0)  -->
<svg version="1.1" id="Capa_1" xmlns="http://www.w3.org/2000/svg" xmlns:xlink="http://www.w3.org/1999/xlink" x="0px" y="0px"
	 viewBox="0 0 300 300" style="enable-background:new 0 0 300 300;" xml:space="preserve">
<style type="text/css">
	.st0{fill:#F58634;}
</style>
<g>
	<path class="st0" d="M152.8,211.4c0.5,6.4,0.4,18.6-0.1,24.3c-0.4,4.7-5.6,4.7-5.9-0.1c-0.5-6.2-0.2-19.7-0.2-24.1
		C146.7,206.1,152.2,204.2,152.8,211.4L152.8,211.4z M146.6,157.5c0.2-4.8,6.1-7.1,6.1,0.1l0.2,25.8c-1.1,3-6.2,3.2-6.2-1.9
		C146.7,174.5,146.4,163.9,146.6,157.5L146.6,157.5z M147,104.8c0-1.5,0.2-2.6,0.5-3.4c1.1-3,5.3-2.4,5.7,1.2
		c0.8,6.7,1.2,20.9-0.2,26.9c-0.8,3.2-5,2.8-5.9,0C146.1,126.2,147,109.2,147,104.8L147,104.8z M147.2,72.5
		c-0.7-6.9-1.2-19,0.8-24.2c1.2-3.1,4-3.8,4.6-0.2c0.8,4.4,1.6,16.6,1.1,24C153.4,78.3,148.1,81.5,147.2,72.5z M148.1,293
		c-0.7-0.8-1.1-1.7-1.4-2.8c-0.8-2.8-0.3-24.7-0.2-27c0.2-3.4,5.6-3.9,6,0.1c0.6,6.5,1,20.4-0.1,27.2c-0.2,1-0.4,1.9-0.9,2.5
		l91.6-0.2L232,256.7c-3.8-11.9-7.4-23.6-11.2-35.4c-7.6-23.7-14.8-47.6-22.4-71.2C194,136.8,153.6,9.6,153.8,8.6
		c-0.4,3.6,2.2,17.1-4.3,15.6c-4.1-0.9-2.2-11.4-2.8-15.5l-91.2,284L148.1,293L148.1,293z M192.8,93.4c-0.8-2.2-23.9-63.8-26.6-66
		l83.5,265.1c22.2,1.4,20.4-0.3,17.1-8.8c-1.1-2.8-2.2-5.4-3.2-8.1L192.8,93.4z M49,292.7c1.3-7.2,41.8-130.5,44.5-139.4
		c10.9-35.2,22.7-69.6,33.5-104.4c2.2-7.1,10.5-29.3,10.7-34.6L83.9,152.6c-12.8,34.4-27.1,69.6-40.5,104.1
		C27.9,296.7,24.4,293.5,49,292.7z"/>
</g>
</svg>
