<?xml version="1.0" encoding="utf-8"?>
<!-- Generator: Adobe Illustrator 21.0.0, SVG Export Plug-In . SVG Version: 6.00 Build 0)  -->
<svg version="1.1"
	 id="svg3825" xmlns:cc="http://creativecommons.org/ns#" xmlns:dc="http://purl.org/dc/elements/1.1/" xmlns:inkscape="http://www.inkscape.org/namespaces/inkscape" xmlns:ns1="http://sozi.baierouge.fr" xmlns:rdf="http://www.w3.org/1999/02/22-rdf-syntax-ns#" xmlns:sodipodi="http://sodipodi.sourceforge.net/DTD/sodipodi-0.dtd" xmlns:svg="http://www.w3.org/2000/svg"
	 xmlns="http://www.w3.org/2000/svg" xmlns:xlink="http://www.w3.org/1999/xlink" x="0px" y="0px" viewBox="0 0 256 256"
	 style="enable-background:new 0 0 256 256;" xml:space="preserve">
<style type="text/css">
	.st0{fill:#606062;}
</style>
<g id="layer1" transform="translate(-203.43 -332.93)">
	<path id="path4875-48-2-1" class="st0" d="M277.6,332.9c-0.1,0-0.2,0-0.3,0c-0.1,0-0.2,0-0.2,0h-9.6c-0.1,0-0.2,0-0.3,0
		c-1.5,0.1-2.8,1.6-2.8,3.1l0,24.3c0,1.6,1.5,3.2,3.1,3.2l7,0v48.9l-19,37L203.8,550c-0.5,0.9-0.4,2.1,0.1,3
		c0.5,0.9,1.6,1.5,2.6,1.5l103.4,0l8.9,0c0.5-2.1,1.2-4.2,2.1-6.3l-11,0l-98.3,0l49.3-96l19.4-37.7c0.2-0.4,0.4-0.9,0.4-1.4l0-49.7
		h58.4v49.7c0,0.5,0.1,1,0.3,1.4l19.4,37.6l8.2,15.8l3.7-6.4l-6.3-12.2l-19-37v-48.9h7c1.6,0,3.1-1.5,3.1-3.1v-24.3
		c0-1.1-0.7-2.3-1.7-2.8c-0.4-0.2-0.9-0.3-1.4-0.3h-9.9c-0.1,0-0.2,0-0.2-0.1L277.6,332.9L277.6,332.9z M415.4,399.4
		c-1,0.1-1.9,0.7-2.4,1.5l-85.5,148.1c-7.3,12.7-3,28.9,9.8,36.3c12.7,7.3,29.1,3.1,36.4-9.7l85.5-148.1c0.8-1.4,0.3-3.4-1.1-4.2
		l-40.7-23.5c-0.1-0.1-0.2-0.1-0.2-0.2C416.5,399.5,415.9,399.4,415.4,399.4L415.4,399.4z M416.8,406.8l35.3,20.3l-83.9,145.4
		c-5.7,9.8-18,13.1-27.9,7.4c-9.8-5.7-13.1-18-7.4-27.8L416.8,406.8L416.8,406.8z M282.9,439.7c-0.1,0-0.2,0-0.3,0
		c-1,0.1-2,0.8-2.4,1.7L270,460.9l-37.1,72.2c-0.5,0.9-0.5,2.2,0.1,3.1c0.5,0.9,1.6,1.5,2.7,1.5h74.3l16.9,0l33.1-57.2l-10-19.5
		l-10.1-19.6c-0.3-0.7-0.9-1.2-1.6-1.5c-0.4-0.2-0.8-0.2-1.2-0.2L282.9,439.7L282.9,439.7z M318.6,448.6c1.5,0,2.8,0.4,4,1.1
		c2.7,1.4,4.5,4.2,4.5,7.5c0,4.7-3.8,8.6-8.6,8.6c-4.7,0-8.6-3.9-8.6-8.6C310,452.4,313.9,448.6,318.6,448.6L318.6,448.6z
		 M294.6,473.8c1.1,0,2.2,0.3,3.2,0.8c2.1,1.1,3.5,3.3,3.5,5.8c0,3.7-3,6.6-6.7,6.6c-3.7,0-6.6-2.9-6.6-6.6
		C288,476.8,291,473.8,294.6,473.8L294.6,473.8z M410.2,480l-12.9,0.1c-4.3,0-8.7,0.1-13,0.1c-1.1,0-2.3,0.6-2.8,1.6l-41.3,71.6
		c-3.9,6.8-2.1,15.5,4.5,19.2c6.6,3.8,15,1,18.9-5.8l41.3-71.5c0-0.1,0.1-0.2,0.1-0.3l0.4-0.7l6.5-11.2c0.5-0.9,0.2-2.3-0.8-2.8
		c-0.1,0-0.1-0.1-0.2-0.1C410.7,480,410.4,480,410.2,480L410.2,480z M317.5,500.8c1.3,0,2.5,0.3,3.6,0.9c2.3,1.3,3.8,3.7,3.8,6.6
		c0,4.1-3.3,7.4-7.4,7.4s-7.5-3.3-7.5-7.4C310.1,504.2,313.4,500.8,317.5,500.8L317.5,500.8z M377.9,505.5c3.3,0,5.9,2.7,5.9,5.9
		s-2.7,5.9-5.9,5.9s-5.9-2.7-5.9-5.9S374.7,505.5,377.9,505.5L377.9,505.5z M302.4,520.2c0.8,0,1.5,0.2,2.2,0.6
		c1,0.7,1.7,1.9,1.7,3.2c0,2.1-1.7,3.9-3.9,3.9c-2.1,0-3.9-1.8-3.9-3.9C298.5,521.9,300.2,520.2,302.4,520.2L302.4,520.2z
		 M406.5,531.2l-3.7,6.4l5.5,10.7h-11.7l-3.6,6.3l20.4,0c1.1,0,2.1-0.6,2.7-1.5c0.6-0.9,0.6-2.1,0.1-3.1L406.5,531.2L406.5,531.2z
		 M363.7,541.7c2.6,0,4.8,2.2,4.8,4.8s-2.1,4.8-4.8,4.8s-4.8-2.1-4.8-4.8S361,541.7,363.7,541.7z M350.1,557.9
		c1.8,0,3.3,1.5,3.3,3.3s-1.4,3.2-3.3,3.2s-3.3-1.4-3.3-3.2S348.3,557.9,350.1,557.9z"/>
</g>
</svg>
