<?xml version="1.0" encoding="utf-8"?>
<!-- Generator: Adobe Illustrator 21.0.0, SVG Export Plug-In . SVG Version: 6.00 Build 0)  -->
<svg version="1.1" id="Capa_1" xmlns="http://www.w3.org/2000/svg" xmlns:xlink="http://www.w3.org/1999/xlink" x="0px" y="0px"
	 viewBox="0 0 300 300" style="enable-background:new 0 0 300 300;" xml:space="preserve">
<style type="text/css">
	.st0{fill:#F58634;}
</style>
<g transform="scale(1 -1)">
	<g transform="translate(0 -96)">
		<g>
			<path marker-start="none" marker-end="none" class="st0" d="M46.1-118.4c0,14.2,11.5,25.8,25.8,25.8s25.8-11.6,25.8-25.8
				c0-14.2-11.6-25.8-25.8-25.8S46.1-132.7,46.1-118.4z M153.9-118.4c0,14.2,11.5,25.8,25.8,25.8c14.2,0,25.8-11.6,25.8-25.8
				c0-14.2-11.6-25.8-25.8-25.8C165.4-144.2,153.9-132.7,153.9-118.4z M210.2-118.4c0,14.2,11.5,25.8,25.8,25.8
				c14.2,0,25.8-11.6,25.8-25.8c0-14.2-11.6-25.8-25.8-25.8C221.7-144.2,210.2-132.7,210.2-118.4z M83.6-118.4
				c0,6.5-5.2,11.7-11.7,11.7c-6.4,0-11.7-5.2-11.7-11.7c0-6.5,5.2-11.7,11.7-11.7C78.3-130.1,83.6-124.9,83.6-118.4z M191.4-118.4
				c0,6.5-5.2,11.7-11.7,11.7c-6.5,0-11.7-5.2-11.7-11.7c0-6.5,5.2-11.7,11.7-11.7C186.1-130.1,191.4-124.9,191.4-118.4z
				 M247.6-118.4c0,6.5-5.2,11.7-11.7,11.7c-6.5,0-11.7-5.2-11.7-11.7c0-6.5,5.2-11.7,11.7-11.7
				C242.4-130.1,247.6-124.9,247.6-118.4z M105.5-121.1v14.1h-5.4c-4.5,11.2-15.5,19.1-28.2,19.1c-15.3,0-28-11.3-30.2-26.1H29
				l-1.5,21.2L27-86.4h5.4l-0.4,5.3h-5.8l-2.7,32.2l0.2,0.5h4.6l14,39.9H37l-1.7,7h53.8v-10.4h7v15h3.7c1.3,8,8.3,14.1,16.7,14.1
				h0.1v-6.5c0,0-0.1,0-0.1,0c-4.8,0-8.8-3.2-10-7.5h3.7v-75.1h7v22.3l14.1,3.5v-25.8h43.8l-36.9,19.5l-3.1,11.7l-12.5-3.2
				c-3.8-1-7.7,1.3-8.7,5.1l-0.6,2.5c-1,3.8,1.3,7.7,5.1,8.7l12.4,3.2l-3,11.5l23.1,36l25-94.9h6.2l-26.1,99l34.2,9l26.5-100.5
				l-28.6-7.5h48.6v24.3L222-61.3l-25.7,97.5l40.4-9.7l0,4.9H276l0.6-0.6l-11.2-11.3l5.2-1.3l6-27.4l-16.4-16.5v-46.2h14.1v-4.7
				H89.1v-4.7h180.5v-2.3h0v-35.2h-3.2c0,0.1,0,0.2,0,0.3c0,16.8-13.7,30.5-30.5,30.5c-12.7,0-23.5-7.7-28.1-18.8
				c-4.6,11-15.5,18.8-28.1,18.8c-12.8,0-23.7-7.9-28.3-19.1h-6.1v-14.1H105.5z M96.1-71.8v12h-7l0-12l0.3,0H96.1z M96.1-55.1v38.6
				h-7v-38.6H96.1z M32.8-48.3L75-44.2v35.7H46.8L32.8-48.3z"/>
		</g>
	</g>
</g>
</svg>
