<svg version="1.1" id="Capa_1" xmlns="http://www.w3.org/2000/svg" xmlns:xlink="http://www.w3.org/1999/xlink" x="0px" y="0px"
	 viewBox="0 0 50.3 91.2" style="enable-background:new 0 0 50.3 91.2;" xml:space="preserve">
<g>
	<path d="M7.5,0.9C3.8,0.9,0.8,3.6,0.8,7v76.5c0,3.4,3,6.1,6.7,6.1h35.3c3.7,0,6.7-2.7,6.7-6.1V7c0-3.4-3-6.1-6.7-6.1H7.5z
		 M39.4,3.2c0.7,0,1.2,0.6,1.2,1.2c0,0.7-0.6,1.2-1.2,1.2c-0.7,0-1.2-0.6-1.2-1.2C38.1,3.8,38.7,3.2,39.4,3.2z M20.9,3.9h8.4
		c0.2,0,0.4,0.2,0.4,0.4s-0.2,0.4-0.4,0.4h-8.4c-0.2,0-0.4-0.2-0.4-0.4C20.6,4.1,20.7,3.9,20.9,3.9z M7.6,4.3C7.8,4.3,8,4.5,8,4.7
		S7.8,5.1,7.6,5.1c-0.2,0-0.4-0.2-0.4-0.4C7.2,4.5,7.3,4.3,7.6,4.3z M9,4.4c0.2,0,0.4,0.2,0.4,0.4S9.2,5.2,9,5.2S8.6,5,8.6,4.8
		C8.6,4.5,8.8,4.4,9,4.4z M3.1,8.5h44.2v71.8H3.1V8.5z M19.8,83.3h10.7c0.7,0,1.3,0.5,1.3,1.1v1.2c0,0.6-0.6,1.1-1.3,1.1H19.8
		c-0.7,0-1.3-0.5-1.3-1.1v-1.2C18.5,83.8,19.1,83.3,19.8,83.3z"/>
</g>
</svg>
